<svg width="100" height="57" viewBox="0 0 100 57" fill="none" xmlns="http://www.w3.org/2000/svg">
<rect x="0.75" y="0.75" width="55.5" height="55.5" rx="27.75" stroke="white" stroke-width="1.5"/>
<rect x="0.75" y="0.75" width="55.5" height="55.5" rx="27.75" stroke="white" stroke-width="1.5"/>
<path d="M27.3129 32.32C27.3129 33.088 27.1809 33.784 26.9169 34.408C26.6529 35.02 26.2929 35.542 25.8369 35.974C25.3809 36.406 24.8409 36.742 24.2169 36.982C23.5929 37.21 22.9149 37.324 22.1829 37.324C21.4509 37.324 20.7729 37.21 20.1489 36.982C19.5249 36.742 18.9789 36.406 18.5109 35.974C18.0549 35.542 17.6949 35.02 17.4309 34.408C17.1789 33.784 17.0529 33.088 17.0529 32.32L17.0527 3H19.3207L19.3209 32.23C19.3209 32.602 19.3689 32.974 19.4649 33.346C19.5609 33.706 19.7169 34.03 19.9329 34.318C20.1609 34.606 20.4549 34.84 20.8149 35.02C21.1869 35.2 21.6429 35.29 22.1829 35.29C22.7229 35.29 23.1729 35.2 23.5329 35.02C23.9049 34.84 24.1989 34.606 24.4149 34.318C24.6429 34.03 24.8049 33.706 24.9009 33.346C24.9969 32.974 25.0449 32.602 25.0449 32.23V24.256H27.3129V32.32Z" fill="white"/>
<path d="M33.0885 30.196L29.1285 24.256H31.8645L34.4925 28.612L37.0845 24.256H39.6945L35.8065 30.25L49.8785 46.5L48.0165 47.5L34.4025 31.996L31.4145 37H28.6785L33.0885 30.196Z" fill="white"/>
</svg>
