<svg width="57" height="58" viewBox="0 0 57 58" fill="none" xmlns="http://www.w3.org/2000/svg">
<path d="M21.4437 52.4504L4.80493 40.9754L16.8067 15.7303M21.4437 52.4504L36.935 40.9754L25.761 15.7303M21.4437 52.4504V20.8941M25.761 15.7303L21.4437 5.97656M25.761 15.7303L21.4437 20.8941M21.4437 5.97656V20.8941M21.4437 5.97656L16.8067 15.7303M21.4437 20.8941L16.8067 15.7303M40.8283 53.0242L27.755 43.6742L37.1849 23.1041M40.8283 53.0242L53.0001 43.6742L44.2204 23.1041M40.8283 53.0242V27.3116M44.2204 23.1041L40.8283 15.1566M44.2204 23.1041L40.8283 27.3116M40.8283 15.1566V27.3116M40.8283 15.1566L37.1849 23.1041M40.8283 27.3116L37.1849 23.1041" stroke="url(#paint0_linear)"/>
<path d="M21.4437 52.4504L4.80493 40.9754L16.8067 15.7303M21.4437 52.4504L36.935 40.9754L25.761 15.7303M21.4437 52.4504V20.8941M25.761 15.7303L21.4437 5.97656M25.761 15.7303L21.4437 20.8941M21.4437 5.97656V20.8941M21.4437 5.97656L16.8067 15.7303M21.4437 20.8941L16.8067 15.7303M40.8283 53.0242L27.755 43.6742L37.1849 23.1041M40.8283 53.0242L53.0001 43.6742L44.2204 23.1041M40.8283 53.0242V27.3116M44.2204 23.1041L40.8283 15.1566M44.2204 23.1041L40.8283 27.3116M40.8283 15.1566V27.3116M40.8283 15.1566L37.1849 23.1041M40.8283 27.3116L37.1849 23.1041" stroke="#777777"/>
<defs>
<linearGradient id="paint0_linear" x1="46.115" y1="12.8616" x2="20.2962" y2="46.1392" gradientUnits="userSpaceOnUse">
<stop stop-color="#589EA4"/>
<stop offset="1" stop-color="#7973BA"/>
</linearGradient>
</defs>
</svg>
