<svg width="50" height="50" viewBox="0 0 50 50" fill="none" xmlns="http://www.w3.org/2000/svg">
<rect x="0.25" y="0.25" width="48.5238" height="48.5238" rx="24.2619" stroke="#C1C1C1" stroke-width="0.5"/>
<rect x="2.25" y="2.25" width="44.5" height="44.5" rx="22.25" stroke="#777777" stroke-width="0.5"/>
<rect x="2.25" y="2.25" width="44.5" height="44.5" rx="22.25" stroke="url(#paint0_linear)" stroke-width="0.5"/>
<path d="M15 30.2497V19H17.2534L19.2487 24.5044C19.3749 24.8599 19.4953 25.2269 19.61 25.6053C19.7246 25.9723 19.845 26.3392 19.9712 26.7062H20.04C20.1661 26.3392 20.2808 25.9723 20.384 25.6053C20.4987 25.2269 20.6191 24.8599 20.7452 24.5044L22.689 19H24.9596V30.2497H23.119V25.1065C23.119 24.8427 23.1248 24.556 23.1362 24.2464C23.1592 23.9368 23.1821 23.6272 23.205 23.3175C23.228 22.9964 23.2566 22.6868 23.291 22.3887C23.3254 22.079 23.3541 21.7924 23.3771 21.5286H23.3082L22.3966 24.1432L20.556 29.2004H19.3691L17.5114 24.1432L16.6169 21.5286H16.5481C16.5711 21.7924 16.594 22.079 16.6169 22.3887C16.6513 22.6868 16.68 22.9964 16.7029 23.3175C16.7373 23.6272 16.7603 23.9368 16.7717 24.2464C16.7947 24.556 16.8061 24.8427 16.8061 25.1065V30.2497H15Z" fill="#296FB0"/>
<path d="M27.817 30.2497V19H31.4121C31.9969 19 32.5302 19.0516 33.0118 19.1548C33.5049 19.2466 33.9292 19.4014 34.2847 19.6192C34.6517 19.8257 34.9326 20.1066 35.1276 20.4621C35.334 20.8176 35.4372 21.2534 35.4372 21.7694C35.4372 22.3084 35.2996 22.8072 35.0244 23.2659C34.7492 23.7246 34.365 24.04 33.8719 24.212V24.2808C34.4911 24.4184 35.0014 24.7108 35.4028 25.1581C35.8156 25.5938 36.0221 26.1902 36.0221 26.947C36.0221 27.5089 35.9131 27.9963 35.6952 28.4091C35.4773 28.822 35.1735 29.166 34.7836 29.4412C34.4051 29.7164 33.9522 29.9228 33.4246 30.0605C32.8971 30.1866 32.3238 30.2497 31.7045 30.2497H27.817ZM29.8124 23.6444H31.2401C32.0313 23.6444 32.599 23.501 32.943 23.2143C33.2985 22.9276 33.4763 22.5435 33.4763 22.0618C33.4763 21.5114 33.2928 21.1215 32.9258 20.8921C32.5588 20.6628 32.0084 20.5481 31.2745 20.5481H29.8124V23.6444ZM29.8124 28.7016H31.4981C32.3238 28.7016 32.9602 28.5525 33.4074 28.2543C33.8547 27.9447 34.0783 27.4745 34.0783 26.8438C34.0783 26.2475 33.8604 25.8175 33.4246 25.5537C32.9889 25.2785 32.3467 25.1409 31.4981 25.1409H29.8124V28.7016Z" fill="#296FB0"/>
<defs>
<linearGradient id="paint0_linear" x1="24.5" y1="2" x2="24.5" y2="34" gradientUnits="userSpaceOnUse">
<stop stop-color="#E376D8"/>
<stop offset="1" stop-color="#296FAF"/>
</linearGradient>
</defs>
</svg>
