<svg width="355" height="55" viewBox="0 0 355 55" fill="none" xmlns="http://www.w3.org/2000/svg">
<path d="M63.4391 30V3.186H68.8101L73.5661 16.306C73.8668 17.1533 74.1538 18.028 74.4271 18.93C74.7005 19.8047 74.9875 20.6793 75.2881 21.554H75.4521C75.7528 20.6793 76.0261 19.8047 76.2721 18.93C76.5455 18.028 76.8325 17.1533 77.1331 16.306L81.7661 3.186H87.1781V30H82.7911V17.741C82.7911 17.1123 82.8048 16.429 82.8321 15.691C82.8868 14.953 82.9415 14.215 82.9961 13.477C83.0508 12.7117 83.1191 11.9737 83.2011 11.263C83.2831 10.525 83.3515 9.84167 83.4061 9.213H83.2421L81.0691 15.445L76.6821 27.499H73.8531L69.4251 15.445L67.2931 9.213H67.1291C67.1838 9.84167 67.2385 10.525 67.2931 11.263C67.3751 11.9737 67.4435 12.7117 67.4981 13.477C67.5801 14.215 67.6348 14.953 67.6621 15.691C67.7168 16.429 67.7441 17.1123 67.7441 17.741V30H63.4391ZM94.0789 30V9.869H98.7939V30H94.0789ZM96.4569 6.343C95.6096 6.343 94.9126 6.097 94.3659 5.605C93.8193 5.113 93.5459 4.47067 93.5459 3.678C93.5459 2.88533 93.8193 2.243 94.3659 1.751C94.9126 1.23167 95.6096 0.972 96.4569 0.972C97.3043 0.972 98.0013 1.23167 98.5479 1.751C99.0946 2.243 99.3679 2.88533 99.3679 3.678C99.3679 4.47067 99.0946 5.113 98.5479 5.605C98.0013 6.097 97.3043 6.343 96.4569 6.343ZM105.309 30V1.054H109.942V19.135H110.065L117.527 9.869H122.693L115.805 18.069L123.39 30H118.265L113.099 21.267L109.942 24.875V30H105.309ZM134.879 30.492C133.485 30.492 132.187 30.2597 130.984 29.795C129.782 29.303 128.729 28.606 127.827 27.704C126.925 26.802 126.215 25.7087 125.695 24.424C125.203 23.112 124.957 21.6223 124.957 19.955C124.957 18.315 125.217 16.839 125.736 15.527C126.256 14.215 126.939 13.108 127.786 12.206C128.661 11.304 129.659 10.607 130.779 10.115C131.9 9.623 133.048 9.377 134.223 9.377C135.59 9.377 136.793 9.60933 137.831 10.074C138.87 10.5387 139.731 11.1947 140.414 12.042C141.125 12.8893 141.658 13.9007 142.013 15.076C142.369 16.2513 142.546 17.536 142.546 18.93C142.546 19.3947 142.519 19.832 142.464 20.242C142.437 20.652 142.396 20.98 142.341 21.226H129.549C129.768 23.03 130.397 24.424 131.435 25.408C132.501 26.3647 133.854 26.843 135.494 26.843C136.369 26.843 137.175 26.72 137.913 26.474C138.679 26.2007 139.43 25.8317 140.168 25.367L141.767 28.319C140.811 28.9477 139.745 29.467 138.569 29.877C137.394 30.287 136.164 30.492 134.879 30.492ZM129.508 18.028H138.446C138.446 16.47 138.105 15.2537 137.421 14.379C136.765 13.477 135.74 13.026 134.346 13.026C133.144 13.026 132.091 13.4497 131.189 14.297C130.287 15.1443 129.727 16.388 129.508 18.028Z" fill="#296FB0"/>
<path d="M156.668 30V3.186H165.237C166.631 3.186 167.902 3.309 169.05 3.555C170.225 3.77367 171.236 4.14267 172.084 4.662C172.958 5.154 173.628 5.82367 174.093 6.671C174.585 7.51833 174.831 8.557 174.831 9.787C174.831 11.0717 174.503 12.2607 173.847 13.354C173.191 14.4473 172.275 15.199 171.1 15.609V15.773C172.576 16.101 173.792 16.798 174.749 17.864C175.733 18.9027 176.225 20.324 176.225 22.128C176.225 23.4673 175.965 24.629 175.446 25.613C174.926 26.597 174.202 27.417 173.273 28.073C172.371 28.729 171.291 29.221 170.034 29.549C168.776 29.8497 167.41 30 165.934 30H156.668ZM161.424 14.256H164.827C166.713 14.256 168.066 13.9143 168.886 13.231C169.733 12.5477 170.157 11.632 170.157 10.484C170.157 9.172 169.719 8.24266 168.845 7.696C167.97 7.14933 166.658 6.876 164.909 6.876H161.424V14.256ZM161.424 26.31H165.442C167.41 26.31 168.927 25.9547 169.993 25.244C171.059 24.506 171.592 23.3853 171.592 21.882C171.592 20.4607 171.072 19.4357 170.034 18.807C168.995 18.151 167.464 17.823 165.442 17.823H161.424V26.31ZM189.463 30.492C188.205 30.492 187.003 30.2597 185.855 29.795C184.707 29.3303 183.682 28.647 182.78 27.745C181.905 26.843 181.208 25.736 180.689 24.424C180.169 23.112 179.91 21.6223 179.91 19.955C179.91 18.2877 180.169 16.798 180.689 15.486C181.208 14.174 181.905 13.067 182.78 12.165C183.682 11.263 184.707 10.5797 185.855 10.115C187.003 9.623 188.205 9.377 189.463 9.377C190.72 9.377 191.923 9.623 193.071 10.115C194.246 10.5797 195.271 11.263 196.146 12.165C197.02 13.067 197.717 14.174 198.237 15.486C198.783 16.798 199.057 18.2877 199.057 19.955C199.057 21.6223 198.783 23.112 198.237 24.424C197.717 25.736 197.02 26.843 196.146 27.745C195.271 28.647 194.246 29.3303 193.071 29.795C191.923 30.2597 190.72 30.492 189.463 30.492ZM189.463 26.638C190.939 26.638 192.1 26.0367 192.948 24.834C193.795 23.604 194.219 21.9777 194.219 19.955C194.219 17.905 193.795 16.2787 192.948 15.076C192.1 13.846 190.939 13.231 189.463 13.231C187.987 13.231 186.825 13.846 185.978 15.076C185.158 16.2787 184.748 17.905 184.748 19.955C184.748 21.9777 185.158 23.604 185.978 24.834C186.825 26.0367 187.987 26.638 189.463 26.638ZM207.304 30L201.974 9.869H206.73L209.149 20.324C209.368 21.2807 209.546 22.2373 209.682 23.194C209.846 24.1507 210.024 25.121 210.215 26.105H210.379C210.571 25.121 210.762 24.1507 210.953 23.194C211.172 22.2373 211.404 21.2807 211.65 20.324L214.274 9.869H218.579L221.244 20.324C221.49 21.2807 221.723 22.2373 221.941 23.194C222.16 24.1507 222.379 25.121 222.597 26.105H222.761C222.953 25.121 223.13 24.1507 223.294 23.194C223.458 22.2373 223.636 21.2807 223.827 20.324L226.246 9.869H230.674L225.549 30H219.932L217.595 20.611C217.377 19.6543 217.172 18.7113 216.98 17.782C216.789 16.8253 216.584 15.814 216.365 14.748H216.201C216.01 15.814 215.819 16.8253 215.627 17.782C215.436 18.7387 215.231 19.6953 215.012 20.652L212.716 30H207.304ZM239.745 30.492C238.05 30.492 236.861 29.9863 236.178 28.975C235.495 27.9637 235.153 26.5833 235.153 24.834V1.054H239.868V25.08C239.868 25.654 239.977 26.064 240.196 26.31C240.415 26.5287 240.647 26.638 240.893 26.638C241.002 26.638 241.098 26.638 241.18 26.638C241.289 26.638 241.44 26.6107 241.631 26.556L242.246 30.082C241.617 30.3553 240.784 30.492 239.745 30.492ZM246.784 30V9.869H251.499V30H246.784ZM249.162 6.343C248.315 6.343 247.618 6.097 247.071 5.605C246.524 5.113 246.251 4.47067 246.251 3.678C246.251 2.88533 246.524 2.243 247.071 1.751C247.618 1.23167 248.315 0.972 249.162 0.972C250.009 0.972 250.706 1.23167 251.253 1.751C251.8 2.243 252.073 2.88533 252.073 3.678C252.073 4.47067 251.8 5.113 251.253 5.605C250.706 6.097 250.009 6.343 249.162 6.343ZM258.014 30V9.869H261.909L262.237 12.575H262.401C263.303 11.7003 264.274 10.9487 265.312 10.32C266.378 9.69133 267.608 9.377 269.002 9.377C271.162 9.377 272.733 10.074 273.717 11.468C274.701 12.8347 275.193 14.8027 275.193 17.372V30H270.478V17.987C270.478 16.3197 270.232 15.1443 269.74 14.461C269.248 13.7777 268.442 13.436 267.321 13.436C266.447 13.436 265.668 13.6547 264.984 14.092C264.328 14.502 263.577 15.117 262.729 15.937V30H258.014Z" fill="#A0A0A0"/>
<rect x="0.25" y="1.25" width="48.5238" height="48.5238" rx="24.2619" stroke="#C1C1C1" stroke-width="0.5"/>
<rect x="2.25" y="3.25" width="44.5" height="44.5" rx="22.25" stroke="#777777" stroke-width="0.5"/>
<rect x="2.25" y="3.25" width="44.5" height="44.5" rx="22.25" stroke="url(#paint0_linear)" stroke-width="0.5"/>
<path d="M15 31.2497V20H17.2534L19.2487 25.5044C19.3749 25.8599 19.4953 26.2269 19.61 26.6053C19.7246 26.9723 19.845 27.3392 19.9712 27.7062H20.04C20.1661 27.3392 20.2808 26.9723 20.384 26.6053C20.4987 26.2269 20.6191 25.8599 20.7452 25.5044L22.689 20H24.9596V31.2497H23.119V26.1065C23.119 25.8427 23.1248 25.556 23.1362 25.2464C23.1592 24.9368 23.1821 24.6272 23.205 24.3175C23.228 23.9964 23.2566 23.6868 23.291 23.3887C23.3254 23.079 23.3541 22.7924 23.3771 22.5286H23.3082L22.3966 25.1432L20.556 30.2004H19.3691L17.5114 25.1432L16.6169 22.5286H16.5481C16.5711 22.7924 16.594 23.079 16.6169 23.3887C16.6513 23.6868 16.68 23.9964 16.7029 24.3175C16.7373 24.6272 16.7603 24.9368 16.7717 25.2464C16.7947 25.556 16.8061 25.8427 16.8061 26.1065V31.2497H15Z" fill="#296FB0"/>
<path d="M27.817 31.2497V20H31.4121C31.9969 20 32.5302 20.0516 33.0118 20.1548C33.5049 20.2466 33.9292 20.4014 34.2847 20.6192C34.6517 20.8257 34.9326 21.1066 35.1276 21.4621C35.334 21.8176 35.4372 22.2534 35.4372 22.7694C35.4372 23.3084 35.2996 23.8072 35.0244 24.2659C34.7492 24.7246 34.365 25.04 33.8719 25.212V25.2808C34.4911 25.4184 35.0014 25.7108 35.4028 26.1581C35.8156 26.5938 36.0221 27.1902 36.0221 27.947C36.0221 28.5089 35.9131 28.9963 35.6952 29.4091C35.4773 29.822 35.1735 30.166 34.7836 30.4412C34.4051 30.7164 33.9522 30.9228 33.4246 31.0605C32.8971 31.1866 32.3238 31.2497 31.7045 31.2497H27.817ZM29.8124 24.6444H31.2401C32.0313 24.6444 32.599 24.501 32.943 24.2143C33.2985 23.9276 33.4763 23.5435 33.4763 23.0618C33.4763 22.5114 33.2928 22.1215 32.9258 21.8921C32.5588 21.6628 32.0084 21.5481 31.2745 21.5481H29.8124V24.6444ZM29.8124 29.7016H31.4981C32.3238 29.7016 32.9602 29.5525 33.4074 29.2543C33.8547 28.9447 34.0783 28.4745 34.0783 27.8438C34.0783 27.2475 33.8604 26.8175 33.4246 26.5537C32.9889 26.2785 32.3467 26.1409 31.4981 26.1409H29.8124V29.7016Z" fill="#296FB0"/>
<path d="M66.1901 50.18C65.5301 50.18 64.8901 50.055 64.2701 49.805C63.6601 49.555 63.1201 49.2 62.6501 48.74L63.6701 47.555C64.0201 47.885 64.4201 48.155 64.8701 48.365C65.3201 48.565 65.7701 48.665 66.2201 48.665C66.7801 48.665 67.2051 48.55 67.4951 48.32C67.7851 48.09 67.9301 47.785 67.9301 47.405C67.9301 47.205 67.8901 47.035 67.8101 46.895C67.7401 46.755 67.6351 46.635 67.4951 46.535C67.3651 46.425 67.2051 46.325 67.0151 46.235C66.8351 46.145 66.6351 46.055 66.4151 45.965L65.0651 45.38C64.8251 45.28 64.5851 45.155 64.3451 45.005C64.1151 44.855 63.9051 44.675 63.7151 44.465C63.5251 44.255 63.3701 44.01 63.2501 43.73C63.1401 43.45 63.0851 43.13 63.0851 42.77C63.0851 42.38 63.1651 42.02 63.3251 41.69C63.4951 41.35 63.7251 41.055 64.0151 40.805C64.3051 40.555 64.6501 40.36 65.0501 40.22C65.4601 40.08 65.9051 40.01 66.3851 40.01C66.9551 40.01 67.5051 40.125 68.0351 40.355C68.5651 40.575 69.0201 40.875 69.4001 41.255L68.5151 42.365C68.1951 42.105 67.8651 41.9 67.5251 41.75C67.1851 41.6 66.8051 41.525 66.3851 41.525C65.9151 41.525 65.5401 41.63 65.2601 41.84C64.9801 42.04 64.8401 42.32 64.8401 42.68C64.8401 42.87 64.8801 43.035 64.9601 43.175C65.0501 43.305 65.1651 43.425 65.3051 43.535C65.4551 43.635 65.6251 43.73 65.8151 43.82C66.0051 43.9 66.2001 43.98 66.4001 44.06L67.7351 44.615C68.0251 44.735 68.2901 44.875 68.5301 45.035C68.7701 45.195 68.9751 45.38 69.1451 45.59C69.3251 45.8 69.4651 46.045 69.5651 46.325C69.6651 46.595 69.7151 46.91 69.7151 47.27C69.7151 47.67 69.6351 48.045 69.4751 48.395C69.3151 48.745 69.0801 49.055 68.7701 49.325C68.4701 49.585 68.1001 49.795 67.6601 49.955C67.2301 50.105 66.7401 50.18 66.1901 50.18ZM74.9989 50.18C74.4889 50.18 74.0139 50.095 73.5739 49.925C73.1339 49.745 72.7489 49.49 72.4189 49.16C72.0889 48.83 71.8289 48.43 71.6389 47.96C71.4589 47.48 71.3689 46.935 71.3689 46.325C71.3689 45.725 71.4639 45.185 71.6539 44.705C71.8439 44.225 72.0939 43.82 72.4039 43.49C72.7239 43.16 73.0889 42.905 73.4989 42.725C73.9089 42.545 74.3289 42.455 74.7589 42.455C75.2589 42.455 75.6989 42.54 76.0789 42.71C76.4589 42.88 76.7739 43.12 77.0239 43.43C77.2839 43.74 77.4789 44.11 77.6089 44.54C77.7389 44.97 77.8039 45.44 77.8039 45.95C77.8039 46.12 77.7939 46.28 77.7739 46.43C77.7639 46.58 77.7489 46.7 77.7289 46.79H73.0489C73.1289 47.45 73.3589 47.96 73.7389 48.32C74.1289 48.67 74.6239 48.845 75.2239 48.845C75.5439 48.845 75.8389 48.8 76.1089 48.71C76.3889 48.61 76.6639 48.475 76.9339 48.305L77.5189 49.385C77.1689 49.615 76.7789 49.805 76.3489 49.955C75.9189 50.105 75.4689 50.18 74.9989 50.18ZM73.0339 45.62H76.3039C76.3039 45.05 76.1789 44.605 75.9289 44.285C75.6889 43.955 75.3139 43.79 74.8039 43.79C74.3639 43.79 73.9789 43.945 73.6489 44.255C73.3189 44.565 73.1139 45.02 73.0339 45.62ZM79.9514 50V42.635H81.3764L81.4964 43.625H81.5564C81.8864 43.305 82.2414 43.03 82.6214 42.8C83.0114 42.57 83.4614 42.455 83.9714 42.455C84.7614 42.455 85.3364 42.71 85.6964 43.22C86.0564 43.72 86.2364 44.44 86.2364 45.38V50H84.5114V45.605C84.5114 44.995 84.4214 44.565 84.2414 44.315C84.0614 44.065 83.7664 43.94 83.3564 43.94C83.0364 43.94 82.7514 44.02 82.5014 44.18C82.2614 44.33 81.9864 44.555 81.6764 44.855V50H79.9514ZM88.845 50V42.635H90.57V50H88.845ZM89.715 41.345C89.405 41.345 89.15 41.255 88.95 41.075C88.75 40.895 88.65 40.66 88.65 40.37C88.65 40.08 88.75 39.845 88.95 39.665C89.15 39.475 89.405 39.38 89.715 39.38C90.025 39.38 90.28 39.475 90.48 39.665C90.68 39.845 90.78 40.08 90.78 40.37C90.78 40.66 90.68 40.895 90.48 41.075C90.28 41.255 90.025 41.345 89.715 41.345ZM96.2858 50.18C95.8258 50.18 95.3858 50.095 94.9658 49.925C94.5458 49.755 94.1708 49.505 93.8408 49.175C93.5208 48.845 93.2658 48.44 93.0758 47.96C92.8858 47.48 92.7908 46.935 92.7908 46.325C92.7908 45.715 92.8858 45.17 93.0758 44.69C93.2658 44.21 93.5208 43.805 93.8408 43.475C94.1708 43.145 94.5458 42.895 94.9658 42.725C95.3858 42.545 95.8258 42.455 96.2858 42.455C96.7458 42.455 97.1858 42.545 97.6058 42.725C98.0358 42.895 98.4108 43.145 98.7308 43.475C99.0508 43.805 99.3058 44.21 99.4958 44.69C99.6958 45.17 99.7958 45.715 99.7958 46.325C99.7958 46.935 99.6958 47.48 99.4958 47.96C99.3058 48.44 99.0508 48.845 98.7308 49.175C98.4108 49.505 98.0358 49.755 97.6058 49.925C97.1858 50.095 96.7458 50.18 96.2858 50.18ZM96.2858 48.77C96.8258 48.77 97.2508 48.55 97.5608 48.11C97.8708 47.66 98.0258 47.065 98.0258 46.325C98.0258 45.575 97.8708 44.98 97.5608 44.54C97.2508 44.09 96.8258 43.865 96.2858 43.865C95.7458 43.865 95.3208 44.09 95.0108 44.54C94.7108 44.98 94.5608 45.575 94.5608 46.325C94.5608 47.065 94.7108 47.66 95.0108 48.11C95.3208 48.55 95.7458 48.77 96.2858 48.77ZM102.003 50V42.635H103.428L103.548 43.94H103.608C103.868 43.46 104.183 43.095 104.553 42.845C104.923 42.585 105.303 42.455 105.693 42.455C106.043 42.455 106.323 42.505 106.533 42.605L106.233 44.105C106.103 44.065 105.983 44.035 105.873 44.015C105.763 43.995 105.628 43.985 105.468 43.985C105.178 43.985 104.873 44.1 104.553 44.33C104.233 44.55 103.958 44.94 103.728 45.5V50H102.003ZM115.427 50.18C114.857 50.18 114.342 50.1 113.882 49.94C113.432 49.77 113.042 49.505 112.712 49.145C112.392 48.785 112.142 48.325 111.962 47.765C111.792 47.195 111.707 46.505 111.707 45.695V40.19H113.447V45.83C113.447 46.36 113.492 46.81 113.582 47.18C113.682 47.54 113.817 47.83 113.987 48.05C114.167 48.27 114.377 48.43 114.617 48.53C114.857 48.62 115.127 48.665 115.427 48.665C115.727 48.665 116.002 48.62 116.252 48.53C116.502 48.43 116.717 48.27 116.897 48.05C117.077 47.83 117.217 47.54 117.317 47.18C117.417 46.81 117.467 46.36 117.467 45.83V40.19H119.132V45.695C119.132 46.505 119.047 47.195 118.877 47.765C118.707 48.325 118.457 48.785 118.127 49.145C117.807 49.505 117.417 49.77 116.957 49.94C116.507 50.1 115.997 50.18 115.427 50.18ZM120.884 50L123.674 44.945L121.064 40.19H122.999L124.079 42.365C124.199 42.595 124.314 42.83 124.424 43.07C124.544 43.31 124.679 43.575 124.829 43.865H124.889C125.009 43.575 125.119 43.31 125.219 43.07C125.329 42.83 125.439 42.595 125.549 42.365L126.584 40.19H128.429L125.819 45.02L128.609 50H126.674L125.474 47.69C125.344 47.43 125.214 47.175 125.084 46.925C124.964 46.665 124.829 46.385 124.679 46.085H124.619C124.489 46.385 124.364 46.665 124.244 46.925C124.134 47.175 124.019 47.43 123.899 47.69L122.729 50H120.884ZM134.053 50V40.19H136.678C138.178 40.19 139.348 40.595 140.188 41.405C141.028 42.215 141.448 43.43 141.448 45.05C141.448 45.86 141.338 46.575 141.118 47.195C140.908 47.815 140.598 48.335 140.188 48.755C139.788 49.165 139.298 49.475 138.718 49.685C138.148 49.895 137.498 50 136.768 50H134.053ZM135.793 48.59H136.558C137.558 48.59 138.323 48.305 138.853 47.735C139.393 47.155 139.663 46.26 139.663 45.05C139.663 43.85 139.393 42.975 138.853 42.425C138.313 41.875 137.548 41.6 136.558 41.6H135.793V48.59ZM146.928 50.18C146.418 50.18 145.943 50.095 145.503 49.925C145.063 49.745 144.678 49.49 144.348 49.16C144.018 48.83 143.758 48.43 143.568 47.96C143.388 47.48 143.298 46.935 143.298 46.325C143.298 45.725 143.393 45.185 143.583 44.705C143.773 44.225 144.023 43.82 144.333 43.49C144.653 43.16 145.018 42.905 145.428 42.725C145.838 42.545 146.258 42.455 146.688 42.455C147.188 42.455 147.628 42.54 148.008 42.71C148.388 42.88 148.703 43.12 148.953 43.43C149.213 43.74 149.408 44.11 149.538 44.54C149.668 44.97 149.733 45.44 149.733 45.95C149.733 46.12 149.723 46.28 149.703 46.43C149.693 46.58 149.678 46.7 149.658 46.79H144.978C145.058 47.45 145.288 47.96 145.668 48.32C146.058 48.67 146.553 48.845 147.153 48.845C147.473 48.845 147.768 48.8 148.038 48.71C148.318 48.61 148.593 48.475 148.863 48.305L149.448 49.385C149.098 49.615 148.708 49.805 148.278 49.955C147.848 50.105 147.398 50.18 146.928 50.18ZM144.963 45.62H148.233C148.233 45.05 148.108 44.605 147.858 44.285C147.618 43.955 147.243 43.79 146.733 43.79C146.293 43.79 145.908 43.945 145.578 44.255C145.248 44.565 145.043 45.02 144.963 45.62ZM153.935 50.18C153.425 50.18 152.92 50.085 152.42 49.895C151.93 49.695 151.505 49.45 151.145 49.16L151.955 48.05C152.285 48.31 152.61 48.515 152.93 48.665C153.26 48.805 153.615 48.875 153.995 48.875C154.395 48.875 154.69 48.795 154.88 48.635C155.07 48.465 155.165 48.25 155.165 47.99C155.165 47.84 155.12 47.71 155.03 47.6C154.94 47.48 154.82 47.375 154.67 47.285C154.52 47.195 154.35 47.115 154.16 47.045C153.97 46.965 153.78 46.885 153.59 46.805C153.35 46.715 153.105 46.61 152.855 46.49C152.605 46.37 152.38 46.225 152.18 46.055C151.99 45.885 151.83 45.69 151.7 45.47C151.58 45.24 151.52 44.97 151.52 44.66C151.52 44.01 151.76 43.48 152.24 43.07C152.72 42.66 153.375 42.455 154.205 42.455C154.715 42.455 155.175 42.545 155.585 42.725C155.995 42.905 156.35 43.11 156.65 43.34L155.855 44.39C155.595 44.2 155.33 44.05 155.06 43.94C154.8 43.82 154.525 43.76 154.235 43.76C153.865 43.76 153.59 43.84 153.41 44C153.24 44.15 153.155 44.34 153.155 44.57C153.155 44.72 153.195 44.85 153.275 44.96C153.365 45.06 153.48 45.15 153.62 45.23C153.76 45.31 153.92 45.385 154.1 45.455C154.29 45.525 154.485 45.595 154.685 45.665C154.935 45.755 155.185 45.86 155.435 45.98C155.685 46.09 155.91 46.23 156.11 46.4C156.32 46.57 156.485 46.78 156.605 47.03C156.735 47.27 156.8 47.56 156.8 47.9C156.8 48.22 156.735 48.52 156.605 48.8C156.485 49.07 156.305 49.31 156.065 49.52C155.825 49.72 155.525 49.88 155.165 50C154.805 50.12 154.395 50.18 153.935 50.18ZM158.84 50V42.635H160.565V50H158.84ZM159.71 41.345C159.4 41.345 159.145 41.255 158.945 41.075C158.745 40.895 158.645 40.66 158.645 40.37C158.645 40.08 158.745 39.845 158.945 39.665C159.145 39.475 159.4 39.38 159.71 39.38C160.02 39.38 160.275 39.475 160.475 39.665C160.675 39.845 160.775 40.08 160.775 40.37C160.775 40.66 160.675 40.895 160.475 41.075C160.275 41.255 160.02 41.345 159.71 41.345ZM165.831 53.255C165.391 53.255 164.981 53.215 164.601 53.135C164.231 53.055 163.911 52.935 163.641 52.775C163.371 52.615 163.156 52.415 162.996 52.175C162.846 51.935 162.771 51.655 162.771 51.335C162.771 51.025 162.861 50.735 163.041 50.465C163.221 50.205 163.481 49.97 163.821 49.76V49.7C163.631 49.58 163.471 49.42 163.341 49.22C163.221 49.02 163.161 48.77 163.161 48.47C163.161 48.18 163.241 47.92 163.401 47.69C163.571 47.45 163.761 47.255 163.971 47.105V47.045C163.721 46.855 163.496 46.595 163.296 46.265C163.106 45.925 163.011 45.535 163.011 45.095C163.011 44.675 163.091 44.3 163.251 43.97C163.411 43.64 163.621 43.365 163.881 43.145C164.151 42.915 164.461 42.745 164.811 42.635C165.161 42.515 165.531 42.455 165.921 42.455C166.121 42.455 166.311 42.475 166.491 42.515C166.681 42.545 166.851 42.585 167.001 42.635H169.641V43.91H168.291C168.411 44.05 168.511 44.23 168.591 44.45C168.671 44.66 168.711 44.895 168.711 45.155C168.711 45.565 168.636 45.925 168.486 46.235C168.346 46.545 168.151 46.805 167.901 47.015C167.651 47.225 167.356 47.385 167.016 47.495C166.676 47.605 166.311 47.66 165.921 47.66C165.761 47.66 165.596 47.645 165.426 47.615C165.256 47.585 165.086 47.535 164.916 47.465C164.806 47.565 164.716 47.665 164.646 47.765C164.586 47.865 164.556 48 164.556 48.17C164.556 48.38 164.641 48.545 164.811 48.665C164.991 48.785 165.306 48.845 165.756 48.845H167.061C167.951 48.845 168.621 48.99 169.071 49.28C169.531 49.56 169.761 50.02 169.761 50.66C169.761 51.02 169.666 51.36 169.476 51.68C169.296 52 169.036 52.275 168.696 52.505C168.356 52.735 167.941 52.915 167.451 53.045C166.971 53.185 166.431 53.255 165.831 53.255ZM165.921 46.58C166.271 46.58 166.571 46.455 166.821 46.205C167.071 45.945 167.196 45.575 167.196 45.095C167.196 44.635 167.071 44.28 166.821 44.03C166.581 43.77 166.281 43.64 165.921 43.64C165.561 43.64 165.256 43.765 165.006 44.015C164.756 44.265 164.631 44.625 164.631 45.095C164.631 45.575 164.756 45.945 165.006 46.205C165.256 46.455 165.561 46.58 165.921 46.58ZM166.101 52.13C166.701 52.13 167.181 52.01 167.541 51.77C167.911 51.54 168.096 51.265 168.096 50.945C168.096 50.655 167.981 50.46 167.751 50.36C167.531 50.26 167.211 50.21 166.791 50.21H165.786C165.386 50.21 165.051 50.175 164.781 50.105C164.401 50.395 164.211 50.72 164.211 51.08C164.211 51.41 164.376 51.665 164.706 51.845C165.046 52.035 165.511 52.13 166.101 52.13ZM171.559 50V42.635H172.984L173.104 43.625H173.164C173.494 43.305 173.849 43.03 174.229 42.8C174.619 42.57 175.069 42.455 175.579 42.455C176.369 42.455 176.944 42.71 177.304 43.22C177.664 43.72 177.844 44.44 177.844 45.38V50H176.119V45.605C176.119 44.995 176.029 44.565 175.849 44.315C175.669 44.065 175.374 43.94 174.964 43.94C174.644 43.94 174.359 44.02 174.109 44.18C173.869 44.33 173.594 44.555 173.284 44.855V50H171.559ZM183.602 50.18C183.092 50.18 182.617 50.095 182.177 49.925C181.737 49.745 181.352 49.49 181.022 49.16C180.692 48.83 180.432 48.43 180.242 47.96C180.062 47.48 179.972 46.935 179.972 46.325C179.972 45.725 180.067 45.185 180.257 44.705C180.447 44.225 180.697 43.82 181.007 43.49C181.327 43.16 181.692 42.905 182.102 42.725C182.512 42.545 182.932 42.455 183.362 42.455C183.862 42.455 184.302 42.54 184.682 42.71C185.062 42.88 185.377 43.12 185.627 43.43C185.887 43.74 186.082 44.11 186.212 44.54C186.342 44.97 186.407 45.44 186.407 45.95C186.407 46.12 186.397 46.28 186.377 46.43C186.367 46.58 186.352 46.7 186.332 46.79H181.652C181.732 47.45 181.962 47.96 182.342 48.32C182.732 48.67 183.227 48.845 183.827 48.845C184.147 48.845 184.442 48.8 184.712 48.71C184.992 48.61 185.267 48.475 185.537 48.305L186.122 49.385C185.772 49.615 185.382 49.805 184.952 49.955C184.522 50.105 184.072 50.18 183.602 50.18ZM181.637 45.62H184.907C184.907 45.05 184.782 44.605 184.532 44.285C184.292 43.955 183.917 43.79 183.407 43.79C182.967 43.79 182.582 43.945 182.252 44.255C181.922 44.565 181.717 45.02 181.637 45.62ZM188.555 50V42.635H189.98L190.1 43.94H190.16C190.42 43.46 190.735 43.095 191.105 42.845C191.475 42.585 191.855 42.455 192.245 42.455C192.595 42.455 192.875 42.505 193.085 42.605L192.785 44.105C192.655 44.065 192.535 44.035 192.425 44.015C192.315 43.995 192.18 43.985 192.02 43.985C191.73 43.985 191.425 44.1 191.105 44.33C190.785 44.55 190.51 44.94 190.28 45.5V50H188.555ZM200.614 50.18C200.124 50.18 199.684 50.11 199.294 49.97C198.914 49.82 198.589 49.625 198.319 49.385C198.049 49.135 197.839 48.845 197.689 48.515C197.549 48.175 197.479 47.81 197.479 47.42C197.479 47.08 197.529 46.775 197.629 46.505C197.729 46.235 197.864 45.99 198.034 45.77C198.214 45.54 198.414 45.335 198.634 45.155C198.864 44.965 199.104 44.785 199.354 44.615C199.154 44.235 198.999 43.865 198.889 43.505C198.779 43.145 198.724 42.795 198.724 42.455C198.724 42.115 198.779 41.8 198.889 41.51C199.009 41.21 199.179 40.95 199.399 40.73C199.619 40.51 199.879 40.335 200.179 40.205C200.479 40.075 200.819 40.01 201.199 40.01C201.869 40.01 202.394 40.2 202.774 40.58C203.164 40.96 203.359 41.465 203.359 42.095C203.359 42.415 203.299 42.71 203.179 42.98C203.059 43.25 202.899 43.5 202.699 43.73C202.499 43.95 202.269 44.16 202.009 44.36C201.759 44.56 201.499 44.755 201.229 44.945C201.529 45.355 201.869 45.755 202.249 46.145C202.639 46.525 203.044 46.875 203.464 47.195C203.734 46.835 203.974 46.44 204.184 46.01C204.394 45.57 204.569 45.095 204.709 44.585H206.299C206.119 45.205 205.889 45.8 205.609 46.37C205.329 46.94 204.999 47.48 204.619 47.99C204.939 48.19 205.249 48.36 205.549 48.5C205.849 48.63 206.129 48.72 206.389 48.77L205.954 50.18C205.574 50.09 205.184 49.96 204.784 49.79C204.384 49.61 203.979 49.39 203.569 49.13C203.179 49.45 202.739 49.705 202.249 49.895C201.759 50.085 201.214 50.18 200.614 50.18ZM200.164 42.44C200.164 42.67 200.199 42.905 200.269 43.145C200.339 43.375 200.434 43.62 200.554 43.88C200.964 43.62 201.309 43.355 201.589 43.085C201.869 42.815 202.009 42.49 202.009 42.11C202.009 41.85 201.949 41.63 201.829 41.45C201.709 41.27 201.504 41.18 201.214 41.18C200.904 41.18 200.649 41.295 200.449 41.525C200.259 41.755 200.164 42.06 200.164 42.44ZM200.824 48.845C201.094 48.845 201.359 48.795 201.619 48.695C201.889 48.585 202.149 48.44 202.399 48.26C201.959 47.89 201.539 47.5 201.139 47.09C200.749 46.67 200.394 46.235 200.074 45.785C199.794 46.015 199.564 46.255 199.384 46.505C199.214 46.745 199.129 47.015 199.129 47.315C199.129 47.775 199.289 48.145 199.609 48.425C199.929 48.705 200.334 48.845 200.824 48.845ZM215.562 50.18C214.992 50.18 214.477 50.1 214.017 49.94C213.567 49.77 213.177 49.505 212.847 49.145C212.527 48.785 212.277 48.325 212.097 47.765C211.927 47.195 211.842 46.505 211.842 45.695V40.19H213.582V45.83C213.582 46.36 213.627 46.81 213.717 47.18C213.817 47.54 213.952 47.83 214.122 48.05C214.302 48.27 214.512 48.43 214.752 48.53C214.992 48.62 215.262 48.665 215.562 48.665C215.862 48.665 216.137 48.62 216.387 48.53C216.637 48.43 216.852 48.27 217.032 48.05C217.212 47.83 217.352 47.54 217.452 47.18C217.552 46.81 217.602 46.36 217.602 45.83V40.19H219.267V45.695C219.267 46.505 219.182 47.195 219.012 47.765C218.842 48.325 218.592 48.785 218.262 49.145C217.942 49.505 217.552 49.77 217.092 49.94C216.642 50.1 216.132 50.18 215.562 50.18ZM222.216 50V40.19H223.956V50H222.216ZM233.317 50.18C232.657 50.18 232.017 50.055 231.397 49.805C230.787 49.555 230.247 49.2 229.777 48.74L230.797 47.555C231.147 47.885 231.547 48.155 231.997 48.365C232.447 48.565 232.897 48.665 233.347 48.665C233.907 48.665 234.332 48.55 234.622 48.32C234.912 48.09 235.057 47.785 235.057 47.405C235.057 47.205 235.017 47.035 234.937 46.895C234.867 46.755 234.762 46.635 234.622 46.535C234.492 46.425 234.332 46.325 234.142 46.235C233.962 46.145 233.762 46.055 233.542 45.965L232.192 45.38C231.952 45.28 231.712 45.155 231.472 45.005C231.242 44.855 231.032 44.675 230.842 44.465C230.652 44.255 230.497 44.01 230.377 43.73C230.267 43.45 230.212 43.13 230.212 42.77C230.212 42.38 230.292 42.02 230.452 41.69C230.622 41.35 230.852 41.055 231.142 40.805C231.432 40.555 231.777 40.36 232.177 40.22C232.587 40.08 233.032 40.01 233.512 40.01C234.082 40.01 234.632 40.125 235.162 40.355C235.692 40.575 236.147 40.875 236.527 41.255L235.642 42.365C235.322 42.105 234.992 41.9 234.652 41.75C234.312 41.6 233.932 41.525 233.512 41.525C233.042 41.525 232.667 41.63 232.387 41.84C232.107 42.04 231.967 42.32 231.967 42.68C231.967 42.87 232.007 43.035 232.087 43.175C232.177 43.305 232.292 43.425 232.432 43.535C232.582 43.635 232.752 43.73 232.942 43.82C233.132 43.9 233.327 43.98 233.527 44.06L234.862 44.615C235.152 44.735 235.417 44.875 235.657 45.035C235.897 45.195 236.102 45.38 236.272 45.59C236.452 45.8 236.592 46.045 236.692 46.325C236.792 46.595 236.842 46.91 236.842 47.27C236.842 47.67 236.762 48.045 236.602 48.395C236.442 48.745 236.207 49.055 235.897 49.325C235.597 49.585 235.227 49.795 234.787 49.955C234.357 50.105 233.867 50.18 233.317 50.18ZM241.991 50.18C241.531 50.18 241.091 50.095 240.671 49.925C240.251 49.755 239.876 49.505 239.546 49.175C239.226 48.845 238.971 48.44 238.781 47.96C238.591 47.48 238.496 46.935 238.496 46.325C238.496 45.715 238.591 45.17 238.781 44.69C238.971 44.21 239.226 43.805 239.546 43.475C239.876 43.145 240.251 42.895 240.671 42.725C241.091 42.545 241.531 42.455 241.991 42.455C242.451 42.455 242.891 42.545 243.311 42.725C243.741 42.895 244.116 43.145 244.436 43.475C244.756 43.805 245.011 44.21 245.201 44.69C245.401 45.17 245.501 45.715 245.501 46.325C245.501 46.935 245.401 47.48 245.201 47.96C245.011 48.44 244.756 48.845 244.436 49.175C244.116 49.505 243.741 49.755 243.311 49.925C242.891 50.095 242.451 50.18 241.991 50.18ZM241.991 48.77C242.531 48.77 242.956 48.55 243.266 48.11C243.576 47.66 243.731 47.065 243.731 46.325C243.731 45.575 243.576 44.98 243.266 44.54C242.956 44.09 242.531 43.865 241.991 43.865C241.451 43.865 241.026 44.09 240.716 44.54C240.416 44.98 240.266 45.575 240.266 46.325C240.266 47.065 240.416 47.66 240.716 48.11C241.026 48.55 241.451 48.77 241.991 48.77ZM247.95 50V44H246.96V42.71L247.95 42.635V41.87C247.95 41.49 247.995 41.14 248.085 40.82C248.175 40.49 248.32 40.21 248.52 39.98C248.72 39.74 248.97 39.555 249.27 39.425C249.58 39.295 249.955 39.23 250.395 39.23C250.655 39.23 250.9 39.255 251.13 39.305C251.37 39.355 251.575 39.415 251.745 39.485L251.415 40.775C251.145 40.655 250.875 40.595 250.605 40.595C249.985 40.595 249.675 41.01 249.675 41.84V42.635H252.21L252.42 40.625H253.845V42.635H255.735V44H253.845V47.51C253.845 48.37 254.195 48.8 254.895 48.8C255.025 48.8 255.155 48.785 255.285 48.755C255.425 48.725 255.55 48.685 255.66 48.635L255.96 49.91C255.76 49.98 255.53 50.04 255.27 50.09C255.02 50.15 254.745 50.18 254.445 50.18C254.025 50.18 253.665 50.115 253.365 49.985C253.075 49.855 252.835 49.675 252.645 49.445C252.465 49.205 252.33 48.925 252.24 48.605C252.16 48.275 252.12 47.91 252.12 47.51V44H249.675V50H247.95ZM258.989 50L257.039 42.635H258.779L259.664 46.46C259.744 46.81 259.809 47.16 259.859 47.51C259.919 47.86 259.984 48.215 260.054 48.575H260.114C260.184 48.215 260.254 47.86 260.324 47.51C260.404 47.16 260.489 46.81 260.579 46.46L261.539 42.635H263.114L264.089 46.46C264.179 46.81 264.264 47.16 264.344 47.51C264.424 47.86 264.504 48.215 264.584 48.575H264.644C264.714 48.215 264.779 47.86 264.839 47.51C264.899 47.16 264.964 46.81 265.034 46.46L265.919 42.635H267.539L265.664 50H263.609L262.754 46.565C262.674 46.215 262.599 45.87 262.529 45.53C262.459 45.18 262.384 44.81 262.304 44.42H262.244C262.174 44.81 262.104 45.18 262.034 45.53C261.964 45.88 261.889 46.23 261.809 46.58L260.969 50H258.989ZM271.133 50.18C270.483 50.18 269.958 49.985 269.558 49.595C269.158 49.195 268.958 48.67 268.958 48.02C268.958 47.63 269.038 47.285 269.198 46.985C269.368 46.675 269.628 46.41 269.978 46.19C270.338 45.97 270.788 45.785 271.328 45.635C271.878 45.485 272.533 45.37 273.293 45.29C273.283 45.1 273.253 44.92 273.203 44.75C273.163 44.57 273.088 44.415 272.978 44.285C272.878 44.145 272.743 44.04 272.573 43.97C272.403 43.89 272.193 43.85 271.943 43.85C271.583 43.85 271.228 43.92 270.878 44.06C270.538 44.2 270.203 44.37 269.873 44.57L269.243 43.415C269.653 43.155 270.113 42.93 270.623 42.74C271.133 42.55 271.683 42.455 272.273 42.455C273.193 42.455 273.878 42.73 274.328 43.28C274.788 43.82 275.018 44.605 275.018 45.635V50H273.593L273.473 49.19H273.413C273.083 49.47 272.728 49.705 272.348 49.895C271.978 50.085 271.573 50.18 271.133 50.18ZM271.688 48.83C271.988 48.83 272.258 48.76 272.498 48.62C272.748 48.48 273.013 48.28 273.293 48.02V46.37C272.793 46.43 272.373 46.51 272.033 46.61C271.693 46.71 271.418 46.825 271.208 46.955C270.998 47.075 270.848 47.215 270.758 47.375C270.668 47.535 270.623 47.705 270.623 47.885C270.623 48.215 270.723 48.455 270.923 48.605C271.123 48.755 271.378 48.83 271.688 48.83ZM277.582 50V42.635H279.007L279.127 43.94H279.187C279.447 43.46 279.762 43.095 280.132 42.845C280.502 42.585 280.882 42.455 281.272 42.455C281.622 42.455 281.902 42.505 282.112 42.605L281.812 44.105C281.682 44.065 281.562 44.035 281.452 44.015C281.342 43.995 281.207 43.985 281.047 43.985C280.757 43.985 280.452 44.1 280.132 44.33C279.812 44.55 279.537 44.94 279.307 45.5V50H277.582ZM286.682 50.18C286.172 50.18 285.697 50.095 285.257 49.925C284.817 49.745 284.432 49.49 284.102 49.16C283.772 48.83 283.512 48.43 283.322 47.96C283.142 47.48 283.052 46.935 283.052 46.325C283.052 45.725 283.147 45.185 283.337 44.705C283.527 44.225 283.777 43.82 284.087 43.49C284.407 43.16 284.772 42.905 285.182 42.725C285.592 42.545 286.012 42.455 286.442 42.455C286.942 42.455 287.382 42.54 287.762 42.71C288.142 42.88 288.457 43.12 288.707 43.43C288.967 43.74 289.162 44.11 289.292 44.54C289.422 44.97 289.487 45.44 289.487 45.95C289.487 46.12 289.477 46.28 289.457 46.43C289.447 46.58 289.432 46.7 289.412 46.79H284.732C284.812 47.45 285.042 47.96 285.422 48.32C285.812 48.67 286.307 48.845 286.907 48.845C287.227 48.845 287.522 48.8 287.792 48.71C288.072 48.61 288.347 48.475 288.617 48.305L289.202 49.385C288.852 49.615 288.462 49.805 288.032 49.955C287.602 50.105 287.152 50.18 286.682 50.18ZM284.717 45.62H287.987C287.987 45.05 287.862 44.605 287.612 44.285C287.372 43.955 286.997 43.79 286.487 43.79C286.047 43.79 285.662 43.945 285.332 44.255C285.002 44.565 284.797 45.02 284.717 45.62ZM295.287 50V40.19H301.197V41.66H297.027V44.165H300.552V45.635H297.027V48.53H301.347V50H295.287ZM303.708 50V42.635H305.133L305.253 43.625H305.313C305.643 43.305 305.998 43.03 306.378 42.8C306.768 42.57 307.218 42.455 307.728 42.455C308.518 42.455 309.093 42.71 309.453 43.22C309.813 43.72 309.993 44.44 309.993 45.38V50H308.268V45.605C308.268 44.995 308.178 44.565 307.998 44.315C307.818 44.065 307.523 43.94 307.113 43.94C306.793 43.94 306.508 44.02 306.258 44.18C306.018 44.33 305.743 44.555 305.433 44.855V50H303.708ZM315.167 53.255C314.727 53.255 314.317 53.215 313.937 53.135C313.567 53.055 313.247 52.935 312.977 52.775C312.707 52.615 312.492 52.415 312.332 52.175C312.182 51.935 312.107 51.655 312.107 51.335C312.107 51.025 312.197 50.735 312.377 50.465C312.557 50.205 312.817 49.97 313.157 49.76V49.7C312.967 49.58 312.807 49.42 312.677 49.22C312.557 49.02 312.497 48.77 312.497 48.47C312.497 48.18 312.577 47.92 312.737 47.69C312.907 47.45 313.097 47.255 313.307 47.105V47.045C313.057 46.855 312.832 46.595 312.632 46.265C312.442 45.925 312.347 45.535 312.347 45.095C312.347 44.675 312.427 44.3 312.587 43.97C312.747 43.64 312.957 43.365 313.217 43.145C313.487 42.915 313.797 42.745 314.147 42.635C314.497 42.515 314.867 42.455 315.257 42.455C315.457 42.455 315.647 42.475 315.827 42.515C316.017 42.545 316.187 42.585 316.337 42.635H318.977V43.91H317.627C317.747 44.05 317.847 44.23 317.927 44.45C318.007 44.66 318.047 44.895 318.047 45.155C318.047 45.565 317.972 45.925 317.822 46.235C317.682 46.545 317.487 46.805 317.237 47.015C316.987 47.225 316.692 47.385 316.352 47.495C316.012 47.605 315.647 47.66 315.257 47.66C315.097 47.66 314.932 47.645 314.762 47.615C314.592 47.585 314.422 47.535 314.252 47.465C314.142 47.565 314.052 47.665 313.982 47.765C313.922 47.865 313.892 48 313.892 48.17C313.892 48.38 313.977 48.545 314.147 48.665C314.327 48.785 314.642 48.845 315.092 48.845H316.397C317.287 48.845 317.957 48.99 318.407 49.28C318.867 49.56 319.097 50.02 319.097 50.66C319.097 51.02 319.002 51.36 318.812 51.68C318.632 52 318.372 52.275 318.032 52.505C317.692 52.735 317.277 52.915 316.787 53.045C316.307 53.185 315.767 53.255 315.167 53.255ZM315.257 46.58C315.607 46.58 315.907 46.455 316.157 46.205C316.407 45.945 316.532 45.575 316.532 45.095C316.532 44.635 316.407 44.28 316.157 44.03C315.917 43.77 315.617 43.64 315.257 43.64C314.897 43.64 314.592 43.765 314.342 44.015C314.092 44.265 313.967 44.625 313.967 45.095C313.967 45.575 314.092 45.945 314.342 46.205C314.592 46.455 314.897 46.58 315.257 46.58ZM315.437 52.13C316.037 52.13 316.517 52.01 316.877 51.77C317.247 51.54 317.432 51.265 317.432 50.945C317.432 50.655 317.317 50.46 317.087 50.36C316.867 50.26 316.547 50.21 316.127 50.21H315.122C314.722 50.21 314.387 50.175 314.117 50.105C313.737 50.395 313.547 50.72 313.547 51.08C313.547 51.41 313.712 51.665 314.042 51.845C314.382 52.035 314.847 52.13 315.437 52.13ZM320.895 50V42.635H322.62V50H320.895ZM321.765 41.345C321.455 41.345 321.2 41.255 321 41.075C320.8 40.895 320.7 40.66 320.7 40.37C320.7 40.08 320.8 39.845 321 39.665C321.2 39.475 321.455 39.38 321.765 39.38C322.075 39.38 322.33 39.475 322.53 39.665C322.73 39.845 322.83 40.08 322.83 40.37C322.83 40.66 322.73 40.895 322.53 41.075C322.33 41.255 322.075 41.345 321.765 41.345ZM325.321 50V42.635H326.746L326.866 43.625H326.926C327.256 43.305 327.611 43.03 327.991 42.8C328.381 42.57 328.831 42.455 329.341 42.455C330.131 42.455 330.706 42.71 331.066 43.22C331.426 43.72 331.606 44.44 331.606 45.38V50H329.881V45.605C329.881 44.995 329.791 44.565 329.611 44.315C329.431 44.065 329.136 43.94 328.726 43.94C328.406 43.94 328.121 44.02 327.871 44.18C327.631 44.33 327.356 44.555 327.046 44.855V50H325.321ZM337.364 50.18C336.854 50.18 336.379 50.095 335.939 49.925C335.499 49.745 335.114 49.49 334.784 49.16C334.454 48.83 334.194 48.43 334.004 47.96C333.824 47.48 333.734 46.935 333.734 46.325C333.734 45.725 333.829 45.185 334.019 44.705C334.209 44.225 334.459 43.82 334.769 43.49C335.089 43.16 335.454 42.905 335.864 42.725C336.274 42.545 336.694 42.455 337.124 42.455C337.624 42.455 338.064 42.54 338.444 42.71C338.824 42.88 339.139 43.12 339.389 43.43C339.649 43.74 339.844 44.11 339.974 44.54C340.104 44.97 340.169 45.44 340.169 45.95C340.169 46.12 340.159 46.28 340.139 46.43C340.129 46.58 340.114 46.7 340.094 46.79H335.414C335.494 47.45 335.724 47.96 336.104 48.32C336.494 48.67 336.989 48.845 337.589 48.845C337.909 48.845 338.204 48.8 338.474 48.71C338.754 48.61 339.029 48.475 339.299 48.305L339.884 49.385C339.534 49.615 339.144 49.805 338.714 49.955C338.284 50.105 337.834 50.18 337.364 50.18ZM335.399 45.62H338.669C338.669 45.05 338.544 44.605 338.294 44.285C338.054 43.955 337.679 43.79 337.169 43.79C336.729 43.79 336.344 43.945 336.014 44.255C335.684 44.565 335.479 45.02 335.399 45.62ZM345.467 50.18C344.957 50.18 344.482 50.095 344.042 49.925C343.602 49.745 343.217 49.49 342.887 49.16C342.557 48.83 342.297 48.43 342.107 47.96C341.927 47.48 341.837 46.935 341.837 46.325C341.837 45.725 341.932 45.185 342.122 44.705C342.312 44.225 342.562 43.82 342.872 43.49C343.192 43.16 343.557 42.905 343.967 42.725C344.377 42.545 344.797 42.455 345.227 42.455C345.727 42.455 346.167 42.54 346.547 42.71C346.927 42.88 347.242 43.12 347.492 43.43C347.752 43.74 347.947 44.11 348.077 44.54C348.207 44.97 348.272 45.44 348.272 45.95C348.272 46.12 348.262 46.28 348.242 46.43C348.232 46.58 348.217 46.7 348.197 46.79H343.517C343.597 47.45 343.827 47.96 344.207 48.32C344.597 48.67 345.092 48.845 345.692 48.845C346.012 48.845 346.307 48.8 346.577 48.71C346.857 48.61 347.132 48.475 347.402 48.305L347.987 49.385C347.637 49.615 347.247 49.805 346.817 49.955C346.387 50.105 345.937 50.18 345.467 50.18ZM343.502 45.62H346.772C346.772 45.05 346.647 44.605 346.397 44.285C346.157 43.955 345.782 43.79 345.272 43.79C344.832 43.79 344.447 43.945 344.117 44.255C343.787 44.565 343.582 45.02 343.502 45.62ZM350.419 50V42.635H351.844L351.964 43.94H352.024C352.284 43.46 352.599 43.095 352.969 42.845C353.339 42.585 353.719 42.455 354.109 42.455C354.459 42.455 354.739 42.505 354.949 42.605L354.649 44.105C354.519 44.065 354.399 44.035 354.289 44.015C354.179 43.995 354.044 43.985 353.884 43.985C353.594 43.985 353.289 44.1 352.969 44.33C352.649 44.55 352.374 44.94 352.144 45.5V50H350.419Z" fill="#777777"/>
<defs>
<linearGradient id="paint0_linear" x1="24.5" y1="3" x2="24.5" y2="35" gradientUnits="userSpaceOnUse">
<stop stop-color="#E376D8"/>
<stop offset="1" stop-color="#296FAF"/>
</linearGradient>
</defs>
</svg>
