<svg width="279" height="44" viewBox="0 0 279 44" fill="none" xmlns="http://www.w3.org/2000/svg">
<path d="M15.5 42.5L1 32.5L11.459 10.5M15.5 42.5L29 32.5L19.2623 10.5M15.5 42.5V15M19.2623 10.5L15.5 2M19.2623 10.5L15.5 15M15.5 2V15M15.5 2L11.459 10.5M15.5 15L11.459 10.5M32.3929 43L21 34.8519L29.2178 16.9259M32.3929 43L43 34.8519L35.3489 16.9259M32.3929 43V20.5926M35.3489 16.9259L32.3929 10M35.3489 16.9259L32.3929 20.5926M32.3929 10V20.5926M32.3929 10L29.2178 16.9259M32.3929 20.5926L29.2178 16.9259" stroke="url(#paint0_linear)"/>
<path d="M15.5 42.5L1 32.5L11.459 10.5M15.5 42.5L29 32.5L19.2623 10.5M15.5 42.5V15M19.2623 10.5L15.5 2M19.2623 10.5L15.5 15M15.5 2V15M15.5 2L11.459 10.5M15.5 15L11.459 10.5M32.3929 43L21 34.8519L29.2178 16.9259M32.3929 43L43 34.8519L35.3489 16.9259M32.3929 43V20.5926M35.3489 16.9259L32.3929 10M35.3489 16.9259L32.3929 20.5926M32.3929 10V20.5926M32.3929 10L29.2178 16.9259M32.3929 20.5926L29.2178 16.9259" stroke="url(#paint1_linear)"/>
<path d="M15.5 42.5L1 32.5L11.459 10.5M15.5 42.5L29 32.5L19.2623 10.5M15.5 42.5V15M19.2623 10.5L15.5 2M19.2623 10.5L15.5 15M15.5 2V15M15.5 2L11.459 10.5M15.5 15L11.459 10.5M32.3929 43L21 34.8519L29.2178 16.9259M32.3929 43L43 34.8519L35.3489 16.9259M32.3929 43V20.5926M35.3489 16.9259L32.3929 10M35.3489 16.9259L32.3929 20.5926M32.3929 10V20.5926M32.3929 10L29.2178 16.9259M32.3929 20.5926L29.2178 16.9259" stroke="white"/>
<path d="M61.4802 37.904V13.052H66.4582L70.8662 25.212C71.1449 25.9973 71.4109 26.808 71.6642 27.644C71.9176 28.4547 72.1836 29.2653 72.4622 30.076H72.6142C72.8929 29.2653 73.1462 28.4547 73.3742 27.644C73.6276 26.808 73.8936 25.9973 74.1722 25.212L78.4662 13.052H83.4822V37.904H79.4162V26.542C79.4162 25.9593 79.4289 25.326 79.4542 24.642C79.5049 23.958 79.5556 23.274 79.6062 22.59C79.6569 21.8807 79.7202 21.1967 79.7962 20.538C79.8722 19.854 79.9356 19.2207 79.9862 18.638H79.8342L77.8202 24.414L73.7542 35.586H71.1322L67.0282 24.414L65.0522 18.638H64.9002C64.9509 19.2207 65.0016 19.854 65.0522 20.538C65.1282 21.1967 65.1916 21.8807 65.2422 22.59C65.3182 23.274 65.3689 23.958 65.3942 24.642C65.4449 25.326 65.4702 25.9593 65.4702 26.542V37.904H61.4802Z" fill="url(#paint2_linear)"/>
<path d="M61.4802 37.904V13.052H66.4582L70.8662 25.212C71.1449 25.9973 71.4109 26.808 71.6642 27.644C71.9176 28.4547 72.1836 29.2653 72.4622 30.076H72.6142C72.8929 29.2653 73.1462 28.4547 73.3742 27.644C73.6276 26.808 73.8936 25.9973 74.1722 25.212L78.4662 13.052H83.4822V37.904H79.4162V26.542C79.4162 25.9593 79.4289 25.326 79.4542 24.642C79.5049 23.958 79.5556 23.274 79.6062 22.59C79.6569 21.8807 79.7202 21.1967 79.7962 20.538C79.8722 19.854 79.9356 19.2207 79.9862 18.638H79.8342L77.8202 24.414L73.7542 35.586H71.1322L67.0282 24.414L65.0522 18.638H64.9002C64.9509 19.2207 65.0016 19.854 65.0522 20.538C65.1282 21.1967 65.1916 21.8807 65.2422 22.59C65.3182 23.274 65.3689 23.958 65.3942 24.642C65.4449 25.326 65.4702 25.9593 65.4702 26.542V37.904H61.4802Z" fill="white"/>
<path d="M91.9147 37.904V19.246H96.2847V37.904H91.9147ZM94.1187 15.978C93.3333 15.978 92.6873 15.75 92.1807 15.294C91.674 14.838 91.4207 14.2427 91.4207 13.508C91.4207 12.7733 91.674 12.178 92.1807 11.722C92.6873 11.2407 93.3333 11 94.1187 11C94.904 11 95.55 11.2407 96.0567 11.722C96.5633 12.178 96.8167 12.7733 96.8167 13.508C96.8167 14.2427 96.5633 14.838 96.0567 15.294C95.55 15.75 94.904 15.978 94.1187 15.978Z" fill="url(#paint3_linear)"/>
<path d="M91.9147 37.904V19.246H96.2847V37.904H91.9147ZM94.1187 15.978C93.3333 15.978 92.6873 15.75 92.1807 15.294C91.674 14.838 91.4207 14.2427 91.4207 13.508C91.4207 12.7733 91.674 12.178 92.1807 11.722C92.6873 11.2407 93.3333 11 94.1187 11C94.904 11 95.55 11.2407 96.0567 11.722C96.5633 12.178 96.8167 12.7733 96.8167 13.508C96.8167 14.2427 96.5633 14.838 96.0567 15.294C95.55 15.75 94.904 15.978 94.1187 15.978Z" fill="white"/>
<path d="M104.36 37.904V11.076H108.654V27.834H108.768L115.684 19.246H120.472L114.088 26.846L121.118 37.904H116.368L111.58 29.81L108.654 33.154V37.904H104.36Z" fill="url(#paint4_linear)"/>
<path d="M104.36 37.904V11.076H108.654V27.834H108.768L115.684 19.246H120.472L114.088 26.846L121.118 37.904H116.368L111.58 29.81L108.654 33.154V37.904H104.36Z" fill="white"/>
<path d="M133.803 38.36C132.511 38.36 131.308 38.1447 130.193 37.714C129.078 37.258 128.103 36.612 127.267 35.776C126.431 34.94 125.772 33.9267 125.291 32.736C124.835 31.52 124.607 30.1393 124.607 28.594C124.607 27.074 124.848 25.706 125.329 24.49C125.81 23.274 126.444 22.248 127.229 21.412C128.04 20.576 128.964 19.93 130.003 19.474C131.042 19.018 132.106 18.79 133.195 18.79C134.462 18.79 135.576 19.0053 136.539 19.436C137.502 19.8667 138.3 20.4747 138.933 21.26C139.592 22.0453 140.086 22.9827 140.415 24.072C140.744 25.1613 140.909 26.352 140.909 27.644C140.909 28.0747 140.884 28.48 140.833 28.86C140.808 29.24 140.77 29.544 140.719 29.772H128.863C129.066 31.444 129.648 32.736 130.611 33.648C131.599 34.5347 132.853 34.978 134.373 34.978C135.184 34.978 135.931 34.864 136.615 34.636C137.324 34.3827 138.021 34.0407 138.705 33.61L140.187 36.346C139.3 36.9287 138.312 37.41 137.223 37.79C136.134 38.17 134.994 38.36 133.803 38.36ZM128.825 26.808H137.109C137.109 25.364 136.792 24.2367 136.159 23.426C135.551 22.59 134.601 22.172 133.309 22.172C132.194 22.172 131.219 22.5647 130.383 23.35C129.547 24.1353 129.028 25.288 128.825 26.808Z" fill="url(#paint5_linear)"/>
<path d="M133.803 38.36C132.511 38.36 131.308 38.1447 130.193 37.714C129.078 37.258 128.103 36.612 127.267 35.776C126.431 34.94 125.772 33.9267 125.291 32.736C124.835 31.52 124.607 30.1393 124.607 28.594C124.607 27.074 124.848 25.706 125.329 24.49C125.81 23.274 126.444 22.248 127.229 21.412C128.04 20.576 128.964 19.93 130.003 19.474C131.042 19.018 132.106 18.79 133.195 18.79C134.462 18.79 135.576 19.0053 136.539 19.436C137.502 19.8667 138.3 20.4747 138.933 21.26C139.592 22.0453 140.086 22.9827 140.415 24.072C140.744 25.1613 140.909 26.352 140.909 27.644C140.909 28.0747 140.884 28.48 140.833 28.86C140.808 29.24 140.77 29.544 140.719 29.772H128.863C129.066 31.444 129.648 32.736 130.611 33.648C131.599 34.5347 132.853 34.978 134.373 34.978C135.184 34.978 135.931 34.864 136.615 34.636C137.324 34.3827 138.021 34.0407 138.705 33.61L140.187 36.346C139.3 36.9287 138.312 37.41 137.223 37.79C136.134 38.17 134.994 38.36 133.803 38.36ZM128.825 26.808H137.109C137.109 25.364 136.792 24.2367 136.159 23.426C135.551 22.59 134.601 22.172 133.309 22.172C132.194 22.172 131.219 22.5647 130.383 23.35C129.547 24.1353 129.028 25.288 128.825 26.808Z" fill="white"/>
<path d="M158.07 37.904V13.052H166.012C167.304 13.052 168.482 13.166 169.546 13.394C170.635 13.5967 171.573 13.9387 172.358 14.42C173.169 14.876 173.789 15.4967 174.22 16.282C174.676 17.0673 174.904 18.03 174.904 19.17C174.904 20.3607 174.6 21.4627 173.992 22.476C173.384 23.4893 172.535 24.186 171.446 24.566V24.718C172.814 25.022 173.941 25.668 174.828 26.656C175.74 27.6187 176.196 28.936 176.196 30.608C176.196 31.8493 175.955 32.926 175.474 33.838C174.993 34.75 174.321 35.51 173.46 36.118C172.624 36.726 171.623 37.182 170.458 37.486C169.293 37.7647 168.026 37.904 166.658 37.904H158.07ZM162.478 23.312H165.632C167.38 23.312 168.634 22.9953 169.394 22.362C170.179 21.7287 170.572 20.88 170.572 19.816C170.572 18.6 170.167 17.7387 169.356 17.232C168.545 16.7253 167.329 16.472 165.708 16.472H162.478V23.312ZM162.478 34.484H166.202C168.026 34.484 169.432 34.1547 170.42 33.496C171.408 32.812 171.902 31.7733 171.902 30.38C171.902 29.0627 171.421 28.1127 170.458 27.53C169.495 26.922 168.077 26.618 166.202 26.618H162.478V34.484Z" fill="url(#paint6_linear)"/>
<path d="M158.07 37.904V13.052H166.012C167.304 13.052 168.482 13.166 169.546 13.394C170.635 13.5967 171.573 13.9387 172.358 14.42C173.169 14.876 173.789 15.4967 174.22 16.282C174.676 17.0673 174.904 18.03 174.904 19.17C174.904 20.3607 174.6 21.4627 173.992 22.476C173.384 23.4893 172.535 24.186 171.446 24.566V24.718C172.814 25.022 173.941 25.668 174.828 26.656C175.74 27.6187 176.196 28.936 176.196 30.608C176.196 31.8493 175.955 32.926 175.474 33.838C174.993 34.75 174.321 35.51 173.46 36.118C172.624 36.726 171.623 37.182 170.458 37.486C169.293 37.7647 168.026 37.904 166.658 37.904H158.07ZM162.478 23.312H165.632C167.38 23.312 168.634 22.9953 169.394 22.362C170.179 21.7287 170.572 20.88 170.572 19.816C170.572 18.6 170.167 17.7387 169.356 17.232C168.545 16.7253 167.329 16.472 165.708 16.472H162.478V23.312ZM162.478 34.484H166.202C168.026 34.484 169.432 34.1547 170.42 33.496C171.408 32.812 171.902 31.7733 171.902 30.38C171.902 29.0627 171.421 28.1127 170.458 27.53C169.495 26.922 168.077 26.618 166.202 26.618H162.478V34.484Z" fill="white"/>
<path d="M190.502 38.36C189.337 38.36 188.222 38.1447 187.158 37.714C186.094 37.2833 185.144 36.65 184.308 35.814C183.497 34.978 182.851 33.952 182.37 32.736C181.889 31.52 181.648 30.1393 181.648 28.594C181.648 27.0487 181.889 25.668 182.37 24.452C182.851 23.236 183.497 22.21 184.308 21.374C185.144 20.538 186.094 19.9047 187.158 19.474C188.222 19.018 189.337 18.79 190.502 18.79C191.667 18.79 192.782 19.018 193.846 19.474C194.935 19.9047 195.885 20.538 196.696 21.374C197.507 22.21 198.153 23.236 198.634 24.452C199.141 25.668 199.394 27.0487 199.394 28.594C199.394 30.1393 199.141 31.52 198.634 32.736C198.153 33.952 197.507 34.978 196.696 35.814C195.885 36.65 194.935 37.2833 193.846 37.714C192.782 38.1447 191.667 38.36 190.502 38.36ZM190.502 34.788C191.87 34.788 192.947 34.2307 193.732 33.116C194.517 31.976 194.91 30.4687 194.91 28.594C194.91 26.694 194.517 25.1867 193.732 24.072C192.947 22.932 191.87 22.362 190.502 22.362C189.134 22.362 188.057 22.932 187.272 24.072C186.512 25.1867 186.132 26.694 186.132 28.594C186.132 30.4687 186.512 31.976 187.272 33.116C188.057 34.2307 189.134 34.788 190.502 34.788Z" fill="url(#paint7_linear)"/>
<path d="M190.502 38.36C189.337 38.36 188.222 38.1447 187.158 37.714C186.094 37.2833 185.144 36.65 184.308 35.814C183.497 34.978 182.851 33.952 182.37 32.736C181.889 31.52 181.648 30.1393 181.648 28.594C181.648 27.0487 181.889 25.668 182.37 24.452C182.851 23.236 183.497 22.21 184.308 21.374C185.144 20.538 186.094 19.9047 187.158 19.474C188.222 19.018 189.337 18.79 190.502 18.79C191.667 18.79 192.782 19.018 193.846 19.474C194.935 19.9047 195.885 20.538 196.696 21.374C197.507 22.21 198.153 23.236 198.634 24.452C199.141 25.668 199.394 27.0487 199.394 28.594C199.394 30.1393 199.141 31.52 198.634 32.736C198.153 33.952 197.507 34.978 196.696 35.814C195.885 36.65 194.935 37.2833 193.846 37.714C192.782 38.1447 191.667 38.36 190.502 38.36ZM190.502 34.788C191.87 34.788 192.947 34.2307 193.732 33.116C194.517 31.976 194.91 30.4687 194.91 28.594C194.91 26.694 194.517 25.1867 193.732 24.072C192.947 22.932 191.87 22.362 190.502 22.362C189.134 22.362 188.057 22.932 187.272 24.072C186.512 25.1867 186.132 26.694 186.132 28.594C186.132 30.4687 186.512 31.976 187.272 33.116C188.057 34.2307 189.134 34.788 190.502 34.788Z" fill="white"/>
<path d="M209.075 37.904L204.135 19.246H208.543L210.785 28.936C210.987 29.8227 211.152 30.7093 211.279 31.596C211.431 32.4827 211.595 33.382 211.773 34.294H211.925C212.102 33.382 212.279 32.4827 212.457 31.596C212.659 30.7093 212.875 29.8227 213.103 28.936L215.535 19.246H219.525L221.995 28.936C222.223 29.8227 222.438 30.7093 222.641 31.596C222.843 32.4827 223.046 33.382 223.249 34.294H223.401C223.578 33.382 223.743 32.4827 223.895 31.596C224.047 30.7093 224.211 29.8227 224.389 28.936L226.631 19.246H230.735L225.985 37.904H220.779L218.613 29.202C218.41 28.3153 218.22 27.4413 218.043 26.58C217.865 25.6933 217.675 24.756 217.473 23.768H217.321C217.143 24.756 216.966 25.6933 216.789 26.58C216.611 27.4667 216.421 28.3533 216.219 29.24L214.091 37.904H209.075Z" fill="url(#paint8_linear)"/>
<path d="M209.075 37.904L204.135 19.246H208.543L210.785 28.936C210.987 29.8227 211.152 30.7093 211.279 31.596C211.431 32.4827 211.595 33.382 211.773 34.294H211.925C212.102 33.382 212.279 32.4827 212.457 31.596C212.659 30.7093 212.875 29.8227 213.103 28.936L215.535 19.246H219.525L221.995 28.936C222.223 29.8227 222.438 30.7093 222.641 31.596C222.843 32.4827 223.046 33.382 223.249 34.294H223.401C223.578 33.382 223.743 32.4827 223.895 31.596C224.047 30.7093 224.211 29.8227 224.389 28.936L226.631 19.246H230.735L225.985 37.904H220.779L218.613 29.202C218.41 28.3153 218.22 27.4413 218.043 26.58C217.865 25.6933 217.675 24.756 217.473 23.768H217.321C217.143 24.756 216.966 25.6933 216.789 26.58C216.611 27.4667 216.421 28.3533 216.219 29.24L214.091 37.904H209.075Z" fill="white"/>
<path d="M241.178 38.36C239.608 38.36 238.506 37.8913 237.872 36.954C237.239 36.0167 236.922 34.7373 236.922 33.116V11.076H241.292V33.344C241.292 33.876 241.394 34.256 241.596 34.484C241.799 34.6867 242.014 34.788 242.242 34.788C242.344 34.788 242.432 34.788 242.508 34.788C242.61 34.788 242.749 34.7627 242.926 34.712L243.496 37.98C242.914 38.2333 242.141 38.36 241.178 38.36Z" fill="url(#paint9_linear)"/>
<path d="M241.178 38.36C239.608 38.36 238.506 37.8913 237.872 36.954C237.239 36.0167 236.922 34.7373 236.922 33.116V11.076H241.292V33.344C241.292 33.876 241.394 34.256 241.596 34.484C241.799 34.6867 242.014 34.788 242.242 34.788C242.344 34.788 242.432 34.788 242.508 34.788C242.61 34.788 242.749 34.7627 242.926 34.712L243.496 37.98C242.914 38.2333 242.141 38.36 241.178 38.36Z" fill="white"/>
<path d="M249.739 37.904V19.246H254.109V37.904H249.739ZM251.943 15.978C251.158 15.978 250.512 15.75 250.005 15.294C249.498 14.838 249.245 14.2427 249.245 13.508C249.245 12.7733 249.498 12.178 250.005 11.722C250.512 11.2407 251.158 11 251.943 11C252.728 11 253.374 11.2407 253.881 11.722C254.388 12.178 254.641 12.7733 254.641 13.508C254.641 14.2427 254.388 14.838 253.881 15.294C253.374 15.75 252.728 15.978 251.943 15.978Z" fill="url(#paint10_linear)"/>
<path d="M249.739 37.904V19.246H254.109V37.904H249.739ZM251.943 15.978C251.158 15.978 250.512 15.75 250.005 15.294C249.498 14.838 249.245 14.2427 249.245 13.508C249.245 12.7733 249.498 12.178 250.005 11.722C250.512 11.2407 251.158 11 251.943 11C252.728 11 253.374 11.2407 253.881 11.722C254.388 12.178 254.641 12.7733 254.641 13.508C254.641 14.2427 254.388 14.838 253.881 15.294C253.374 15.75 252.728 15.978 251.943 15.978Z" fill="white"/>
<path d="M262.184 37.904V19.246H265.794L266.098 21.754H266.25C267.086 20.9433 267.986 20.2467 268.948 19.664C269.936 19.0813 271.076 18.79 272.368 18.79C274.37 18.79 275.826 19.436 276.738 20.728C277.65 21.9947 278.106 23.8187 278.106 26.2V37.904H273.736V26.77C273.736 25.2247 273.508 24.1353 273.052 23.502C272.596 22.8687 271.849 22.552 270.81 22.552C270 22.552 269.278 22.7547 268.644 23.16C268.036 23.54 267.34 24.11 266.554 24.87V37.904H262.184Z" fill="url(#paint11_linear)"/>
<path d="M262.184 37.904V19.246H265.794L266.098 21.754H266.25C267.086 20.9433 267.986 20.2467 268.948 19.664C269.936 19.0813 271.076 18.79 272.368 18.79C274.37 18.79 275.826 19.436 276.738 20.728C277.65 21.9947 278.106 23.8187 278.106 26.2V37.904H273.736V26.77C273.736 25.2247 273.508 24.1353 273.052 23.502C272.596 22.8687 271.849 22.552 270.81 22.552C270 22.552 269.278 22.7547 268.644 23.16C268.036 23.54 267.34 24.11 266.554 24.87V37.904H262.184Z" fill="white"/>
<defs>
<linearGradient id="paint0_linear" x1="37" y1="8" x2="14.5" y2="37" gradientUnits="userSpaceOnUse">
<stop stop-color="#589EA4"/>
<stop offset="1" stop-color="#7973BA"/>
</linearGradient>
<linearGradient id="paint1_linear" x1="37" y1="8" x2="14.5" y2="37" gradientUnits="userSpaceOnUse">
<stop stop-color="#589EA4"/>
<stop offset="1" stop-color="#7973BA"/>
</linearGradient>
<linearGradient id="paint2_linear" x1="92" y1="106.907" x2="312" y2="-19.0928" gradientUnits="userSpaceOnUse">
<stop stop-color="#7A70BB"/>
<stop offset="1" stop-color="#4EA99E"/>
</linearGradient>
<linearGradient id="paint3_linear" x1="92" y1="106.907" x2="312" y2="-19.0928" gradientUnits="userSpaceOnUse">
<stop stop-color="#7A70BB"/>
<stop offset="1" stop-color="#4EA99E"/>
</linearGradient>
<linearGradient id="paint4_linear" x1="92" y1="106.907" x2="312" y2="-19.0928" gradientUnits="userSpaceOnUse">
<stop stop-color="#7A70BB"/>
<stop offset="1" stop-color="#4EA99E"/>
</linearGradient>
<linearGradient id="paint5_linear" x1="92" y1="106.907" x2="312" y2="-19.0928" gradientUnits="userSpaceOnUse">
<stop stop-color="#7A70BB"/>
<stop offset="1" stop-color="#4EA99E"/>
</linearGradient>
<linearGradient id="paint6_linear" x1="92" y1="106.907" x2="312" y2="-19.0928" gradientUnits="userSpaceOnUse">
<stop stop-color="#7A70BB"/>
<stop offset="1" stop-color="#4EA99E"/>
</linearGradient>
<linearGradient id="paint7_linear" x1="92" y1="106.907" x2="312" y2="-19.0928" gradientUnits="userSpaceOnUse">
<stop stop-color="#7A70BB"/>
<stop offset="1" stop-color="#4EA99E"/>
</linearGradient>
<linearGradient id="paint8_linear" x1="92" y1="106.907" x2="312" y2="-19.0928" gradientUnits="userSpaceOnUse">
<stop stop-color="#7A70BB"/>
<stop offset="1" stop-color="#4EA99E"/>
</linearGradient>
<linearGradient id="paint9_linear" x1="92" y1="106.907" x2="312" y2="-19.0928" gradientUnits="userSpaceOnUse">
<stop stop-color="#7A70BB"/>
<stop offset="1" stop-color="#4EA99E"/>
</linearGradient>
<linearGradient id="paint10_linear" x1="92" y1="106.907" x2="312" y2="-19.0928" gradientUnits="userSpaceOnUse">
<stop stop-color="#7A70BB"/>
<stop offset="1" stop-color="#4EA99E"/>
</linearGradient>
<linearGradient id="paint11_linear" x1="92" y1="106.907" x2="312" y2="-19.0928" gradientUnits="userSpaceOnUse">
<stop stop-color="#7A70BB"/>
<stop offset="1" stop-color="#4EA99E"/>
</linearGradient>
</defs>
</svg>
