<svg width="57" height="57" viewBox="0 0 57 57" fill="none" xmlns="http://www.w3.org/2000/svg">
<rect x="0.75" y="0.75" width="55.5" height="55.5" rx="27.75" stroke="#777777" stroke-width="1.5"/>
<rect x="0.75" y="0.75" width="55.5" height="55.5" rx="27.75" stroke="#777777" stroke-width="1.5"/>
<path d="M16.7419 34.9999V21.9199H19.3619L21.6819 28.3199C21.8286 28.7333 21.9686 29.1599 22.1019 29.5999C22.2353 30.0266 22.3753 30.4533 22.5219 30.8799H22.6019C22.7486 30.4533 22.8819 30.0266 23.0019 29.5999C23.1353 29.1599 23.2753 28.7333 23.4219 28.3199L25.6819 21.9199H28.3219V34.9999H26.1819V29.0199C26.1819 28.7133 26.1886 28.3799 26.2019 28.0199C26.2286 27.6599 26.2553 27.2999 26.2819 26.9399C26.3086 26.5666 26.3419 26.2066 26.3819 25.8599C26.4219 25.4999 26.4553 25.1666 26.4819 24.8599H26.4019L25.3419 27.8999L23.2019 33.7799H21.8219L19.6619 27.8999L18.6219 24.8599H18.5419C18.5686 25.1666 18.5953 25.4999 18.6219 25.8599C18.6619 26.2066 18.6953 26.5666 18.7219 26.9399C18.7619 27.2999 18.7886 27.6599 18.8019 28.0199C18.8286 28.3799 18.8419 28.7133 18.8419 29.0199V34.9999H16.7419Z" fill="#777777"/>
<path d="M31.6443 34.9999V21.9199H35.8243C36.5043 21.9199 37.1243 21.9799 37.6843 22.0999C38.2576 22.2066 38.751 22.3866 39.1643 22.6399C39.591 22.8799 39.9176 23.2066 40.1443 23.6199C40.3843 24.0333 40.5043 24.5399 40.5043 25.1399C40.5043 25.7666 40.3443 26.3466 40.0243 26.8799C39.7043 27.4133 39.2576 27.7799 38.6843 27.9799V28.0599C39.4043 28.2199 39.9976 28.5599 40.4643 29.0799C40.9443 29.5866 41.1843 30.2799 41.1843 31.1599C41.1843 31.8133 41.0576 32.3799 40.8043 32.8599C40.551 33.3399 40.1976 33.7399 39.7443 34.0599C39.3043 34.3799 38.7776 34.6199 38.1643 34.7799C37.551 34.9266 36.8843 34.9999 36.1643 34.9999H31.6443ZM33.9643 27.3199H35.6243C36.5443 27.3199 37.2043 27.1533 37.6043 26.8199C38.0176 26.4866 38.2243 26.0399 38.2243 25.4799C38.2243 24.8399 38.011 24.3866 37.5843 24.1199C37.1576 23.8533 36.5176 23.7199 35.6643 23.7199H33.9643V27.3199ZM33.9643 33.1999H35.9243C36.8843 33.1999 37.6243 33.0266 38.1443 32.6799C38.6643 32.3199 38.9243 31.7733 38.9243 31.0399C38.9243 30.3466 38.671 29.8466 38.1643 29.5399C37.6576 29.2199 36.911 29.0599 35.9243 29.0599H33.9643V33.1999Z" fill="#777777"/>
</svg>
