<svg width="57" height="57" viewBox="0 0 57 57" fill="none" xmlns="http://www.w3.org/2000/svg">
<rect x="0.75" y="0.75" width="55.5" height="55.5" rx="27.75" stroke="#777777" stroke-width="1.5"/>
<rect x="0.75" y="0.75" width="55.5" height="55.5" rx="27.75" stroke="#777777" stroke-width="1.5"/>
<path d="M16.8279 53.9999V21.9199H19.4479L21.7679 28.3199C21.9145 28.7333 22.0545 29.1599 22.1879 29.5999C22.3212 30.0266 22.4612 30.4533 22.6079 30.8799H22.6879C22.8345 30.4533 22.9679 30.0266 23.0879 29.5999C23.2212 29.1599 23.3612 28.7333 23.5079 28.3199L25.7679 21.9199H28.4079V34.9999H26.2679V29.0199C26.2679 28.7133 26.2745 28.3799 26.2879 28.0199C26.3145 27.6599 26.3412 27.2999 26.3679 26.9399C26.3945 26.5666 26.4279 26.2066 26.4679 25.8599C26.5079 25.4999 26.5412 25.1666 26.5679 24.8599H26.4879L25.4279 27.8999L23.2879 33.7799H21.9079L19.7479 27.8999L18.7079 24.8599H18.6279C18.6545 25.1666 18.6812 25.4999 18.7079 25.8599C18.7479 26.2066 18.7812 26.5666 18.8079 26.9399C18.8479 27.2999 18.8745 27.6599 18.8879 28.0199C18.9145 28.3799 18.9279 28.7133 18.9279 29.0199V53.9999H16.8279Z" fill="#777777"/>
<path d="M31.7302 34.9999V21.9199H55.6102V23.8799H34.0502V27.2199H38.7502V29.1799H34.0502V33.0399H39.8102V34.9999H31.7302Z" fill="#777777"/>
</svg>
