<svg width="57" height="57" viewBox="0 0 57 57" fill="none" xmlns="http://www.w3.org/2000/svg">
<rect x="0.75" y="0.75" width="55.5" height="55.5" rx="27.75" stroke="#777777" stroke-width="1.5"/>
<rect x="0.75" y="0.75" width="55.5" height="55.5" rx="27.75" stroke="#777777" stroke-width="1.5"/>
<path d="M8.65894 29.7279V28.5759L16.7549 24.9759V26.7359L11.3469 29.1519L16.7549 31.5679V33.3279L8.65894 29.7279Z" fill="#777777"/>
<path d="M30.5912 30.3199C30.5912 31.0879 30.4592 31.7839 30.1952 32.4079C29.9312 33.0199 29.5712 33.5419 29.1152 33.9739C28.6592 34.4059 28.1192 34.7419 27.4952 34.9819C26.8712 35.2099 26.1932 35.3239 25.4612 35.3239C24.7292 35.3239 24.0512 35.2099 23.4272 34.9819C22.8032 34.7419 22.2572 34.4059 21.7892 33.9739C21.3332 33.5419 20.9732 33.0199 20.7092 32.4079C20.4572 31.7839 20.3312 31.0879 20.3312 30.3199V22.2559H22.5992V30.2299C22.5992 30.6019 22.6472 30.9739 22.7432 31.3459C22.8392 31.7059 22.9952 32.0299 23.2112 32.3179C23.4392 32.6059 23.7332 32.8399 24.0932 33.0199C24.4652 33.1999 24.9212 33.2899 25.4612 33.2899C26.0012 33.2899 26.4512 33.1999 26.8112 33.0199C27.1832 32.8399 27.4772 32.6059 27.6932 32.3179C27.9212 32.0299 28.0832 31.7059 28.1792 31.3459C28.2752 30.9739 28.3232 30.6019 28.3232 30.2299V22.2559H30.5912V30.3199Z" fill="#777777"/>
<path d="M33.2888 22.2559H35.5568V34.9999H33.2888V22.2559Z" fill="#777777"/>
<path d="M47.3409 28.5759V29.7279L39.2449 33.3279V31.5679L44.6529 29.1519L39.2449 26.7359V24.9759L47.3409 28.5759Z" fill="#777777"/>
</svg>
