<svg width="143" height="144" viewBox="0 0 143 144" fill="none" xmlns="http://www.w3.org/2000/svg">
<path d="M39.1137 77.8016L36.8713 78.502L44.3881 102.57L45.3932 97.908L39.1137 77.8016Z" fill="white"/>
<path d="M28.1422 42.6723C27.1384 39.4582 28.9608 36.0999 32.1 35.1194L61.699 25.8752C64.9131 24.8714 68.2714 26.6938 69.2519 29.8331L74.7377 47.3982L76.9801 46.6978L71.4942 29.1328C70.1169 24.7228 65.4087 22.2556 60.9987 23.6329L36.6319 31.243L34.6476 24.8897C34.4609 24.2917 33.7743 23.9319 33.1763 24.1187C32.5783 24.3054 32.2185 24.992 32.4053 25.59L34.3895 31.9433L31.3997 32.8771C26.9898 34.2544 24.5225 38.9626 25.8998 43.3726L31.3857 60.9376L33.628 60.2373L28.1422 42.6723Z" fill="white"/>
<path d="M73.3644 102.624L66.0394 104.912C65.7824 105.403 65.6001 105.87 65.4412 106.412L65.17 107.645L75.5596 104.4L74.6348 103.54C74.3453 103.138 73.8548 102.881 73.3644 102.624Z" fill="white"/>
<path d="M114.055 51.9338C108.673 53.6146 105.692 59.3038 107.373 64.6854L111.318 77.3173C112.158 80.0081 110.616 82.9508 107.926 83.7912C105.235 84.6315 102.292 83.0895 101.452 80.3987L100.121 76.1382C98.6505 71.4293 93.6246 68.7331 88.841 70.2271L84.73 71.511L82.4656 64.2608L80.2233 64.9611L86.5962 85.3665L90.0757 88.6276L85.4303 73.7534L89.5413 72.4695C93.0543 71.3723 96.7817 73.3255 97.8788 76.8386L99.2094 81.099C100.447 85.0605 104.664 87.2707 108.626 86.0335C112.587 84.7963 114.798 80.5785 113.56 76.617L109.592 63.9103C108.308 59.7994 110.621 55.3854 114.732 54.1015C115.33 53.9147 115.69 53.2281 115.503 52.6301C115.316 52.0322 114.653 51.7471 114.055 51.9338Z" fill="white"/>
<path d="M122.753 51.68L120.66 52.3336C120.062 52.5203 119.376 52.1605 119.189 51.5626C119.002 50.9646 119.362 50.278 119.96 50.0912L122.053 49.4376C122.651 49.2509 123.337 49.6107 123.524 50.2086C123.711 50.8066 123.351 51.4932 122.753 51.68Z" fill="white"/>
<path d="M63.2587 83.1402L55.3358 85.6147C54.7378 85.8014 54.378 86.4881 54.5648 87.086C54.7515 87.684 55.4381 88.0438 56.0361 87.857L63.9591 85.3826C64.557 85.1958 64.9168 84.5092 64.7301 83.9112C64.5433 83.3133 63.9314 82.9301 63.2587 83.1402Z" fill="white"/>
<path d="M71.2566 80.6424L69.388 81.226C68.7901 81.4128 68.4303 82.0994 68.617 82.6973C68.8038 83.2953 69.4904 83.6551 70.0883 83.4684L71.957 82.8848C72.5549 82.698 72.9147 82.0114 72.728 81.4134C72.5412 80.8155 71.8546 80.4557 71.2566 80.6424Z" fill="white"/>
<path d="M91.3073 44.7659L69.9302 51.4423C70.1969 49.1441 70.0198 46.7383 69.2961 44.4212C66.4482 35.3023 56.7373 30.2136 47.6185 33.0616C38.4996 35.9096 33.4109 45.6204 36.2588 54.7392C36.9825 57.0563 38.206 59.1353 39.7333 60.8733L18.431 67.5263C16.7118 68.0632 15.2775 69.2495 14.4037 70.917C13.5813 72.4864 13.3474 74.3642 13.9077 76.1581C15.0282 79.7459 18.8537 81.7505 22.4414 80.63L42.2488 74.4438L47.9447 92.6816C48.3182 93.8775 48.4161 95.2416 48.0702 96.4981L41.1233 128.365C40.6605 130.56 41.0384 132.821 42.1919 134.676C43.3688 136.605 45.2511 137.904 47.4465 138.367C47.4465 138.367 47.5213 138.344 47.5446 138.418C52.0336 139.395 56.4718 136.533 57.4489 132.044L63.2224 105.876C63.5449 104.545 64.2131 103.27 65.1242 102.247C66.0353 101.224 67.264 100.43 68.6094 100.01C71.3002 99.1693 74.2851 99.7958 76.3775 101.767L95.8211 119.895C98.1097 121.97 101.244 122.55 104.01 121.686C105.355 121.266 106.658 120.448 107.644 119.402C109.186 117.772 109.995 115.633 109.864 113.377C109.734 111.12 108.856 109.098 107.151 107.579L83.3031 85.3303C82.3784 84.4706 81.7059 83.368 81.309 82.0974L75.6365 63.9344L95.4439 57.7482C97.163 57.2113 98.5973 56.025 99.4711 54.3575C100.294 52.7881 100.527 50.9103 99.9671 49.1164C98.7205 45.6501 94.895 43.6454 91.3073 44.7659ZM94.6688 55.5292L91.38 56.5563L88.7188 48.0354L92.0076 47.0083C94.3994 46.2613 96.875 47.621 97.5987 49.9381C97.9488 51.0593 97.8505 52.3206 97.2617 53.3248C96.673 54.329 95.79 55.179 94.6688 55.5292ZM107.458 113.554C107.552 115.165 106.953 116.665 105.865 117.907C103.589 120.34 99.7963 120.541 97.3629 118.265L77.9193 100.137C75.2664 97.6845 71.3707 96.7683 67.8577 97.8655C66.1385 98.4024 64.5595 99.3877 63.3447 100.752C62.1066 102.041 61.2328 103.708 60.8774 105.46L55.2068 131.431C54.5008 134.687 51.268 136.681 48.0122 135.975C48.0122 135.975 47.9374 135.999 47.9141 135.924C46.41 135.573 45.0415 134.606 44.2242 133.303C43.3836 131.925 43.0429 130.308 43.4682 128.781L50.4152 96.9142C50.7938 95.2373 50.7521 93.5276 50.2385 91.8832L44.1924 72.5243C44.0057 71.9263 43.319 71.5665 42.7211 71.7532L27.3236 76.5621L24.6624 68.0412L41.5548 62.7655C45.9171 66.4892 52.0316 67.943 57.9365 66.0989C63.7666 64.278 67.9669 59.6028 69.5094 54.0348L86.5512 48.7124L89.2124 57.2333L73.7402 62.0655C73.1423 62.2523 72.7825 62.9389 72.9692 63.5368L79.0153 82.8958C79.5289 84.5402 80.4675 85.9697 81.6585 87.1565L105.506 109.405C106.726 110.419 107.44 111.919 107.458 113.554ZM16.2014 75.3597C15.8513 74.2385 15.9496 72.9773 16.5383 71.9731C17.1037 70.8941 18.0101 70.1188 19.1313 69.7686L22.4201 68.7415L25.0813 77.2624L21.7925 78.2896C19.4007 79.0366 16.9251 77.6768 16.2014 75.3597ZM66.9557 45.0701C69.4068 52.9184 64.9863 61.354 57.1381 63.8051C49.2899 66.2562 40.8542 61.8357 38.4031 53.9875C35.952 46.1393 40.3725 37.7037 48.2207 35.2526C56.1437 32.7781 64.5046 37.2219 66.9557 45.0701Z" fill="white"/>
<path d="M56.6058 61.8386C63.1086 59.8076 66.7581 52.8433 64.7271 46.3405C62.8596 40.3609 57.3525 38.2252 49.9528 40.5363C42.553 42.8473 39.2636 47.8124 41.1077 53.7172C43.2134 60.1967 50.103 63.8695 56.6058 61.8386ZM62.4848 47.0408C64.1189 52.273 61.2124 57.9388 55.9055 59.5962C50.5986 61.2536 45.0075 58.3238 43.3501 53.0169C41.2958 46.4393 47.738 43.689 50.6531 42.7786C53.5681 41.8682 60.4305 40.4633 62.4848 47.0408Z" fill="white"/>
<path d="M67.0548 67.1873L51.1341 72.1596C50.5362 72.3464 50.1763 73.033 50.3631 73.6309L52.8376 81.5539C53.0243 82.1519 53.7109 82.5117 54.3089 82.3249L70.2296 77.3527C70.8275 77.1659 71.1873 76.4793 71.0006 75.8813L68.5261 67.9584C68.316 67.2857 67.6527 67.0006 67.0548 67.1873ZM68.4081 75.4605L54.7297 79.7324L52.9556 74.0518L66.6339 69.7799L68.4081 75.4605Z" fill="white"/>
</svg>
