<svg width="95" height="118" viewBox="0 0 95 118" fill="none" xmlns="http://www.w3.org/2000/svg">
<g clip-path="url(#clip0)">
<path fill-rule="evenodd" clip-rule="evenodd" d="M27.7349 27.1418C26.493 30.2984 25.8265 33.6679 25.7895 36.7111C25.7895 36.7656 25.7896 36.82 25.7897 36.8867L25.79 36.9662C25.7915 37.3648 25.7968 37.7575 25.8059 38.1443C25.9628 44.8428 27.258 49.802 30.1135 53.9108C33.4305 58.6836 39.0135 62.4483 47.6316 65.4496C56.2497 62.4483 61.8327 58.6836 65.1497 53.9108C68.0052 49.802 69.3004 44.8428 69.4573 38.1443C69.4664 37.7575 69.4717 37.3648 69.4732 36.9662L69.4735 36.8836L69.4735 36.8742C69.4736 36.82 69.4737 36.7656 69.4738 36.7333C69.4201 32.3008 68.0431 27.2009 65.5078 23.06C63.4867 20.3721 60.8279 18.0267 57.3975 16.4609C48.3525 15.0729 36.6224 19.1632 27.7349 27.1418ZM71.2567 39.4364C71.2958 39.63 71.3158 39.8468 71.3158 40.0877C71.3158 47.3425 72.8948 54.204 76.0527 60.6721C69.814 64.6486 61.8435 66.8856 52.1411 67.3832C56.1176 76.2611 71.3093 77.0445 75.1609 83.3341C74.6743 83.7028 74.18 84.0619 73.6783 84.4112C72.6981 82.6641 70.2733 81.1857 65.6668 79.1824C65.5067 79.1127 64.4502 78.6573 63.6453 78.3088C61.7478 81.1025 55.292 82.8622 47.6316 82.8622C39.9712 82.8622 33.5154 81.1025 31.6179 78.3088C30.813 78.6573 29.7565 79.1127 29.5964 79.1824C24.9899 81.1857 22.5651 82.6641 21.5849 84.4112C21.0832 84.0619 20.5889 83.7028 20.1023 83.3341C23.9539 77.0445 39.1456 76.2611 43.1221 67.3832C33.4197 66.8856 25.4492 64.6486 19.2106 60.6721C22.3684 54.204 23.9474 47.3425 23.9474 40.0877C23.9474 39.8461 23.9676 39.6287 24.0068 39.4347C23.97 38.6283 23.9511 37.8078 23.9479 36.9733C23.9474 36.9419 23.9475 36.9104 23.9476 36.8787C23.9475 36.8229 23.9474 36.767 23.9474 36.7111C23.9503 36.4697 23.9572 36.2228 23.9682 35.9709C23.95 34.9266 23.9474 33.8607 23.9474 32.7778C23.9474 19.7439 34.5512 9.17778 47.6316 9.17778C60.712 9.17778 71.3158 19.7439 71.3158 32.7778C71.3158 33.8607 71.3132 34.9266 71.295 35.9709C71.306 36.2228 71.3129 36.4697 71.3158 36.7111C71.3158 36.767 71.3157 36.8229 71.3156 36.8787C71.3157 36.9104 71.3158 36.9419 71.3158 36.9733C71.3125 37.8084 71.2936 38.6294 71.2567 39.4364ZM61.6743 77.438C61.0203 77.1404 60.4097 76.8524 59.8359 76.5689H35.4273C34.8535 76.8524 34.2429 77.1404 33.5889 77.438C34.1658 78.0561 35.3145 78.7177 36.9908 79.2839C39.767 80.2217 43.5663 80.7644 47.6316 80.7644C51.697 80.7644 55.4962 80.2217 58.2724 79.2839C59.9487 78.7177 61.0974 78.0561 61.6743 77.438ZM59.8359 76.5689C57.5861 75.4574 55.9028 74.4169 54.39 73.1559C52.2011 71.3313 50.6858 69.2088 49.9192 66.6969C49.366 66.8992 48.8012 67.098 48.2246 67.2934L47.6316 67.4943L47.0386 67.2934C46.462 67.098 45.8972 66.8992 45.344 66.6969C44.5774 69.2088 43.0621 71.3313 40.8732 73.1559C39.3604 74.4169 37.6771 75.4574 35.4273 76.5689H59.8359ZM47.6316 94.4C21.4707 94.4 0.263184 73.2678 0.263184 47.2C0.263184 21.1322 21.4707 0 47.6316 0C73.7925 0 95 21.1322 95 47.2C95 73.2678 73.7925 94.4 47.6316 94.4ZM47.6316 92.5644C72.7751 92.5644 93.1579 72.2541 93.1579 47.2C93.1579 22.1459 72.7751 1.83556 47.6316 1.83556C22.4881 1.83556 2.10529 22.1459 2.10529 47.2C2.10529 72.2541 22.4881 92.5644 47.6316 92.5644ZM40.7193 54.6111C40.2451 54.4276 40.0099 53.8959 40.1941 53.4234C40.3782 52.9508 40.9119 52.7165 41.386 52.9C43.5415 53.734 45.6519 54.1489 47.7217 54.1489C49.7871 54.1489 51.8315 53.7358 53.8611 52.9064C54.3317 52.7141 54.8697 52.9383 55.0627 53.4073C55.2557 53.8763 55.0307 54.4124 54.56 54.6047C52.3118 55.5235 50.0303 55.9844 47.7217 55.9844C45.4176 55.9844 43.082 55.5253 40.7193 54.6111ZM37.3684 39.8578C36.3511 39.8578 35.5263 39.717 35.5263 38.6475C35.5263 37.5781 36.3511 36.7111 37.3684 36.7111C38.3858 36.7111 39.2105 37.5781 39.2105 38.6475C39.2105 39.717 38.3858 39.8578 37.3684 39.8578ZM57.8948 39.8578C56.8774 39.8578 56.0527 39.717 56.0527 38.6475C56.0527 37.5781 56.8774 36.7111 57.8948 36.7111C58.9121 36.7111 59.7369 37.5781 59.7369 38.6475C59.7369 39.717 58.9121 39.8578 57.8948 39.8578Z" fill="black"/>
<path fill-rule="evenodd" clip-rule="evenodd" d="M27.7349 27.1418C26.493 30.2984 25.8265 33.6679 25.7895 36.7111C25.7895 36.7656 25.7896 36.82 25.7897 36.8867L25.79 36.9662C25.7915 37.3648 25.7968 37.7575 25.8059 38.1443C25.9628 44.8428 27.258 49.802 30.1135 53.9108C33.4305 58.6836 39.0135 62.4483 47.6316 65.4496C56.2497 62.4483 61.8327 58.6836 65.1497 53.9108C68.0052 49.802 69.3004 44.8428 69.4573 38.1443C69.4664 37.7575 69.4717 37.3648 69.4732 36.9662L69.4735 36.8836L69.4735 36.8742C69.4736 36.82 69.4737 36.7656 69.4738 36.7333C69.4201 32.3008 68.0431 27.2009 65.5078 23.06C63.4867 20.3721 60.8279 18.0267 57.3975 16.4609C48.3525 15.0729 36.6224 19.1632 27.7349 27.1418ZM71.2567 39.4364C71.2958 39.63 71.3158 39.8468 71.3158 40.0877C71.3158 47.3425 72.8948 54.204 76.0527 60.6721C69.814 64.6486 61.8435 66.8856 52.1411 67.3832C56.1176 76.2611 71.3093 77.0445 75.1609 83.3341C74.6743 83.7028 74.18 84.0619 73.6783 84.4112C72.6981 82.6641 70.2733 81.1857 65.6668 79.1824C65.5067 79.1127 64.4502 78.6573 63.6453 78.3088C61.7478 81.1025 55.292 82.8622 47.6316 82.8622C39.9712 82.8622 33.5154 81.1025 31.6179 78.3088C30.813 78.6573 29.7565 79.1127 29.5964 79.1824C24.9899 81.1857 22.5651 82.6641 21.5849 84.4112C21.0832 84.0619 20.5889 83.7028 20.1023 83.3341C23.9539 77.0445 39.1456 76.2611 43.1221 67.3832C33.4197 66.8856 25.4492 64.6486 19.2106 60.6721C22.3684 54.204 23.9474 47.3425 23.9474 40.0877C23.9474 39.8461 23.9676 39.6287 24.0068 39.4347C23.97 38.6283 23.9511 37.8078 23.9479 36.9733C23.9474 36.9419 23.9475 36.9104 23.9476 36.8787C23.9475 36.8229 23.9474 36.767 23.9474 36.7111C23.9503 36.4697 23.9572 36.2228 23.9682 35.9709C23.95 34.9266 23.9474 33.8607 23.9474 32.7778C23.9474 19.7439 34.5512 9.17778 47.6316 9.17778C60.712 9.17778 71.3158 19.7439 71.3158 32.7778C71.3158 33.8607 71.3132 34.9266 71.295 35.9709C71.306 36.2228 71.3129 36.4697 71.3158 36.7111C71.3158 36.767 71.3157 36.8229 71.3156 36.8787C71.3157 36.9104 71.3158 36.9419 71.3158 36.9733C71.3125 37.8084 71.2936 38.6294 71.2567 39.4364ZM61.6743 77.438C61.0203 77.1404 60.4097 76.8524 59.8359 76.5689H35.4273C34.8535 76.8524 34.2429 77.1404 33.5889 77.438C34.1658 78.0561 35.3145 78.7177 36.9908 79.2839C39.767 80.2217 43.5663 80.7644 47.6316 80.7644C51.697 80.7644 55.4962 80.2217 58.2724 79.2839C59.9487 78.7177 61.0974 78.0561 61.6743 77.438ZM59.8359 76.5689C57.5861 75.4574 55.9028 74.4169 54.39 73.1559C52.2011 71.3313 50.6858 69.2088 49.9192 66.6969C49.366 66.8992 48.8012 67.098 48.2246 67.2934L47.6316 67.4943L47.0386 67.2934C46.462 67.098 45.8972 66.8992 45.344 66.6969C44.5774 69.2088 43.0621 71.3313 40.8732 73.1559C39.3604 74.4169 37.6771 75.4574 35.4273 76.5689H59.8359ZM47.6316 94.4C21.4707 94.4 0.263184 73.2678 0.263184 47.2C0.263184 21.1322 21.4707 0 47.6316 0C73.7925 0 95 21.1322 95 47.2C95 73.2678 73.7925 94.4 47.6316 94.4ZM47.6316 92.5644C72.7751 92.5644 93.1579 72.2541 93.1579 47.2C93.1579 22.1459 72.7751 1.83556 47.6316 1.83556C22.4881 1.83556 2.10529 22.1459 2.10529 47.2C2.10529 72.2541 22.4881 92.5644 47.6316 92.5644ZM40.7193 54.6111C40.2451 54.4276 40.0099 53.8959 40.1941 53.4234C40.3782 52.9508 40.9119 52.7165 41.386 52.9C43.5415 53.734 45.6519 54.1489 47.7217 54.1489C49.7871 54.1489 51.8315 53.7358 53.8611 52.9064C54.3317 52.7141 54.8697 52.9383 55.0627 53.4073C55.2557 53.8763 55.0307 54.4124 54.56 54.6047C52.3118 55.5235 50.0303 55.9844 47.7217 55.9844C45.4176 55.9844 43.082 55.5253 40.7193 54.6111ZM37.3684 39.8578C36.3511 39.8578 35.5263 39.717 35.5263 38.6475C35.5263 37.5781 36.3511 36.7111 37.3684 36.7111C38.3858 36.7111 39.2105 37.5781 39.2105 38.6475C39.2105 39.717 38.3858 39.8578 37.3684 39.8578ZM57.8948 39.8578C56.8774 39.8578 56.0527 39.717 56.0527 38.6475C56.0527 37.5781 56.8774 36.7111 57.8948 36.7111C58.9121 36.7111 59.7369 37.5781 59.7369 38.6475C59.7369 39.717 58.9121 39.8578 57.8948 39.8578Z" fill="white"/>
</g>
<defs>
<clipPath id="clip0">
<rect width="95" height="118" fill="white"/>
</clipPath>
</defs>
</svg>
