<svg width="95" height="118" viewBox="0 0 95 118" fill="none" xmlns="http://www.w3.org/2000/svg">
<path fill-rule="evenodd" clip-rule="evenodd" d="M71.1455 34.744C71.2084 35.4308 71.2424 36.0893 71.25 36.7111C71.25 36.767 71.2499 36.8229 71.2498 36.8787C71.2499 36.9104 71.25 36.9419 71.25 36.9733C71.1992 49.869 67.4035 59.3971 51.4883 65.909C54.3712 76.1938 71.0398 76.7128 75.1057 83.3341C74.6178 83.7028 74.1221 84.0619 73.6191 84.4112C73.5774 84.4402 73.5356 84.4691 73.4938 84.4979C72.5152 82.7456 70.0832 81.265 65.4533 79.2571C65.2289 79.1598 63.2479 78.3086 62.655 78.0492C59.0678 76.4799 56.6422 75.1991 54.6466 73.638L47.4215 77.8191L40.2993 73.5776C38.2925 75.164 35.8433 76.461 32.2131 78.0492C31.6202 78.3086 29.6392 79.1598 29.4147 79.2571C24.8426 81.24 22.4138 82.7086 21.4115 84.4325C21.4013 84.4254 21.3911 84.4183 21.3809 84.4112C20.8779 84.0619 20.3822 83.7028 19.8943 83.3341C23.9602 76.7128 40.6288 76.1938 43.5117 65.909C27.5965 59.3971 23.8008 49.869 23.7505 36.9733C23.75 36.9419 23.7501 36.9104 23.7502 36.8787C23.7501 36.8229 23.75 36.767 23.75 36.7111C23.7576 36.0893 23.7915 35.4308 23.8545 34.744C23.7854 34.0104 23.75 33.2671 23.75 32.5156C23.75 19.4816 23.75 8.91556 47.5 8.91556C71.25 8.91556 71.25 19.4816 71.25 32.5156C71.25 33.2671 71.2146 34.0104 71.1455 34.744ZM53.3083 72.2883C51.6305 70.666 50.4439 68.8207 49.7939 66.6969C49.2393 66.8992 48.6729 67.098 48.0946 67.2934L47.5 67.4943L46.9054 67.2934C46.3271 67.098 45.7607 66.8992 45.2061 66.6969C44.5579 68.8149 43.3759 70.656 41.7054 72.2751L47.435 75.6872L53.3083 72.2883ZM47.5 94.4C21.2665 94.4 0 73.2678 0 47.2C0 21.1322 21.2665 0 47.5 0C73.7335 0 95 21.1322 95 47.2C95 73.2678 73.7335 94.4 47.5 94.4ZM47.5 92.5644C72.7133 92.5644 93.1528 72.2541 93.1528 47.2C93.1528 22.1459 72.7133 1.83556 47.5 1.83556C22.2867 1.83556 1.84722 22.1459 1.84722 47.2C1.84722 72.2541 22.2867 92.5644 47.5 92.5644ZM69.4026 36.8742C69.4027 36.82 69.4028 36.7656 69.4029 36.7333C69.3437 31.8591 67.6799 26.1779 64.6314 21.8523C60.8209 16.4453 55.1655 13.3733 47.5 13.3733C39.8345 13.3733 34.1791 16.4453 30.3686 21.8523C27.3201 26.1779 25.6563 31.8591 25.5972 36.7111C25.5972 36.7656 25.5973 36.82 25.5974 36.8867L25.5977 36.9662C25.6262 44.2672 26.9044 49.5647 29.9332 53.9108C33.2594 58.6836 38.858 62.4483 47.5 65.4496C56.142 62.4483 61.7406 58.6836 65.0668 53.9108C68.0956 49.5647 69.3738 44.2672 69.4023 36.9662L69.4026 36.8836L69.4026 36.8742ZM47.5 47.7244C53.0409 47.7244 55.8125 51.1333 56.4722 53.0115C56.1258 53.6539 53.5519 53.7207 50.7986 52.7067C48.9631 52.0306 47.8635 51.1227 47.5 49.9828C47.1365 51.1227 46.0369 52.0306 44.2014 52.7067C41.4481 53.7207 38.8742 53.6539 38.5278 53.0115C39.1875 51.1333 41.9591 47.7244 47.5 47.7244ZM37.2083 39.8578C36.1881 39.8578 35.3611 39.717 35.3611 38.6475C35.3611 37.5781 36.1881 36.7111 37.2083 36.7111C38.2285 36.7111 39.0556 37.5781 39.0556 38.6475C39.0556 39.717 38.2285 39.8578 37.2083 39.8578ZM57.7917 39.8578C56.7715 39.8578 55.9444 39.717 55.9444 38.6475C55.9444 37.5781 56.7715 36.7111 57.7917 36.7111C58.8119 36.7111 59.6389 37.5781 59.6389 38.6475C59.6389 39.717 58.8119 39.8578 57.7917 39.8578ZM50.7672 36.9869C48.7452 36.1126 46.6147 36.0954 44.6204 36.9334C44.6932 37.3083 44.7311 37.7095 44.7311 38.1377C44.7311 42.1191 41.4521 45.3467 37.4072 45.3467C33.3623 45.3467 30.0833 42.1191 30.0833 38.1377C30.0833 38.0085 30.0868 37.8817 30.0936 37.7574H25.3333V35.9218H30.4984C31.5025 33.5365 34.2166 32.5156 37.4072 32.5156C40.2666 32.5156 42.7432 33.3355 43.9494 35.2226C46.3694 34.2203 48.9756 34.236 51.4199 35.2677C52.6152 33.3486 55.1085 32.5156 57.9906 32.5156C61.2212 32.5156 63.9632 33.5622 64.9363 36.0121L69.6042 35.922L69.6401 37.7572L65.3082 37.8408C65.3123 37.9383 65.3144 38.0373 65.3144 38.1377C65.3144 42.1191 62.0354 45.3467 57.9906 45.3467C53.9457 45.3467 50.6667 42.1191 50.6667 38.1377C50.6667 37.7298 50.7011 37.3464 50.7672 36.9869ZM37.4072 43.5111C40.4358 43.5111 42.8839 41.1014 42.8839 38.1377C42.8839 35.6494 40.9886 34.3511 37.4072 34.3511C33.8259 34.3511 31.9306 35.6494 31.9306 38.1377C31.9306 41.1014 34.3786 43.5111 37.4072 43.5111ZM57.9906 43.5111C61.0191 43.5111 63.4672 41.1014 63.4672 38.1377C63.4672 35.6494 61.5719 34.3511 57.9906 34.3511C54.4092 34.3511 52.5139 35.6494 52.5139 38.1377C52.5139 41.1014 54.962 43.5111 57.9906 43.5111Z" fill="black"/>
<path fill-rule="evenodd" clip-rule="evenodd" d="M71.1455 34.744C71.2084 35.4308 71.2424 36.0893 71.25 36.7111C71.25 36.767 71.2499 36.8229 71.2498 36.8787C71.2499 36.9104 71.25 36.9419 71.25 36.9733C71.1992 49.869 67.4035 59.3971 51.4883 65.909C54.3712 76.1938 71.0398 76.7128 75.1057 83.3341C74.6178 83.7028 74.1221 84.0619 73.6191 84.4112C73.5774 84.4402 73.5356 84.4691 73.4938 84.4979C72.5152 82.7456 70.0832 81.265 65.4533 79.2571C65.2289 79.1598 63.2479 78.3086 62.655 78.0492C59.0678 76.4799 56.6422 75.1991 54.6466 73.638L47.4215 77.8191L40.2993 73.5776C38.2925 75.164 35.8433 76.461 32.2131 78.0492C31.6202 78.3086 29.6392 79.1598 29.4147 79.2571C24.8426 81.24 22.4138 82.7086 21.4115 84.4325C21.4013 84.4254 21.3911 84.4183 21.3809 84.4112C20.8779 84.0619 20.3822 83.7028 19.8943 83.3341C23.9602 76.7128 40.6288 76.1938 43.5117 65.909C27.5965 59.3971 23.8008 49.869 23.7505 36.9733C23.75 36.9419 23.7501 36.9104 23.7502 36.8787C23.7501 36.8229 23.75 36.767 23.75 36.7111C23.7576 36.0893 23.7915 35.4308 23.8545 34.744C23.7854 34.0104 23.75 33.2671 23.75 32.5156C23.75 19.4816 23.75 8.91556 47.5 8.91556C71.25 8.91556 71.25 19.4816 71.25 32.5156C71.25 33.2671 71.2146 34.0104 71.1455 34.744ZM53.3083 72.2883C51.6305 70.666 50.4439 68.8207 49.7939 66.6969C49.2393 66.8992 48.6729 67.098 48.0946 67.2934L47.5 67.4943L46.9054 67.2934C46.3271 67.098 45.7607 66.8992 45.2061 66.6969C44.5579 68.8149 43.3759 70.656 41.7054 72.2751L47.435 75.6872L53.3083 72.2883ZM47.5 94.4C21.2665 94.4 0 73.2678 0 47.2C0 21.1322 21.2665 0 47.5 0C73.7335 0 95 21.1322 95 47.2C95 73.2678 73.7335 94.4 47.5 94.4ZM47.5 92.5644C72.7133 92.5644 93.1528 72.2541 93.1528 47.2C93.1528 22.1459 72.7133 1.83556 47.5 1.83556C22.2867 1.83556 1.84722 22.1459 1.84722 47.2C1.84722 72.2541 22.2867 92.5644 47.5 92.5644ZM69.4026 36.8742C69.4027 36.82 69.4028 36.7656 69.4029 36.7333C69.3437 31.8591 67.6799 26.1779 64.6314 21.8523C60.8209 16.4453 55.1655 13.3733 47.5 13.3733C39.8345 13.3733 34.1791 16.4453 30.3686 21.8523C27.3201 26.1779 25.6563 31.8591 25.5972 36.7111C25.5972 36.7656 25.5973 36.82 25.5974 36.8867L25.5977 36.9662C25.6262 44.2672 26.9044 49.5647 29.9332 53.9108C33.2594 58.6836 38.858 62.4483 47.5 65.4496C56.142 62.4483 61.7406 58.6836 65.0668 53.9108C68.0956 49.5647 69.3738 44.2672 69.4023 36.9662L69.4026 36.8836L69.4026 36.8742ZM47.5 47.7244C53.0409 47.7244 55.8125 51.1333 56.4722 53.0115C56.1258 53.6539 53.5519 53.7207 50.7986 52.7067C48.9631 52.0306 47.8635 51.1227 47.5 49.9828C47.1365 51.1227 46.0369 52.0306 44.2014 52.7067C41.4481 53.7207 38.8742 53.6539 38.5278 53.0115C39.1875 51.1333 41.9591 47.7244 47.5 47.7244ZM37.2083 39.8578C36.1881 39.8578 35.3611 39.717 35.3611 38.6475C35.3611 37.5781 36.1881 36.7111 37.2083 36.7111C38.2285 36.7111 39.0556 37.5781 39.0556 38.6475C39.0556 39.717 38.2285 39.8578 37.2083 39.8578ZM57.7917 39.8578C56.7715 39.8578 55.9444 39.717 55.9444 38.6475C55.9444 37.5781 56.7715 36.7111 57.7917 36.7111C58.8119 36.7111 59.6389 37.5781 59.6389 38.6475C59.6389 39.717 58.8119 39.8578 57.7917 39.8578ZM50.7672 36.9869C48.7452 36.1126 46.6147 36.0954 44.6204 36.9334C44.6932 37.3083 44.7311 37.7095 44.7311 38.1377C44.7311 42.1191 41.4521 45.3467 37.4072 45.3467C33.3623 45.3467 30.0833 42.1191 30.0833 38.1377C30.0833 38.0085 30.0868 37.8817 30.0936 37.7574H25.3333V35.9218H30.4984C31.5025 33.5365 34.2166 32.5156 37.4072 32.5156C40.2666 32.5156 42.7432 33.3355 43.9494 35.2226C46.3694 34.2203 48.9756 34.236 51.4199 35.2677C52.6152 33.3486 55.1085 32.5156 57.9906 32.5156C61.2212 32.5156 63.9632 33.5622 64.9363 36.0121L69.6042 35.922L69.6401 37.7572L65.3082 37.8408C65.3123 37.9383 65.3144 38.0373 65.3144 38.1377C65.3144 42.1191 62.0354 45.3467 57.9906 45.3467C53.9457 45.3467 50.6667 42.1191 50.6667 38.1377C50.6667 37.7298 50.7011 37.3464 50.7672 36.9869ZM37.4072 43.5111C40.4358 43.5111 42.8839 41.1014 42.8839 38.1377C42.8839 35.6494 40.9886 34.3511 37.4072 34.3511C33.8259 34.3511 31.9306 35.6494 31.9306 38.1377C31.9306 41.1014 34.3786 43.5111 37.4072 43.5111ZM57.9906 43.5111C61.0191 43.5111 63.4672 41.1014 63.4672 38.1377C63.4672 35.6494 61.5719 34.3511 57.9906 34.3511C54.4092 34.3511 52.5139 35.6494 52.5139 38.1377C52.5139 41.1014 54.962 43.5111 57.9906 43.5111Z" fill="white"/>
</svg>
