<svg width="94" height="118" viewBox="0 0 94 118" fill="none" xmlns="http://www.w3.org/2000/svg">
<g clip-path="url(#clip0)">
<path fill-rule="evenodd" clip-rule="evenodd" d="M70.5446 35.9709C70.5555 36.2228 70.5623 36.4697 70.5652 36.7111C70.5652 36.767 70.5651 36.8229 70.565 36.8787C70.5651 36.9104 70.5652 36.9419 70.5652 36.9733C70.5151 49.869 66.7697 59.3971 51.0657 65.909C53.9103 76.1938 70.3578 76.7128 74.3698 83.3341C73.8883 83.7028 73.3992 84.0619 72.9028 84.4112C71.9329 82.6641 69.5337 81.1857 64.9757 79.1824C64.8172 79.1127 63.7719 78.6573 62.9755 78.3088C61.0979 81.1025 54.71 82.8622 47.1303 82.8622C39.5506 82.8622 33.1627 81.1025 31.2851 78.3088C30.4887 78.6573 29.4434 79.1127 29.285 79.1824C24.7269 81.1857 22.3277 82.6641 21.3578 84.4112C20.8614 84.0619 20.3723 83.7028 19.8908 83.3341C23.9028 76.7128 40.3503 76.1938 43.1949 65.909C27.4909 59.3971 23.7455 49.869 23.6959 36.9733C23.6954 36.9419 23.6955 36.9104 23.6956 36.8787C23.6955 36.8229 23.6954 36.767 23.6954 36.7111C23.6983 36.4697 23.7051 36.2228 23.716 35.9709C23.698 34.9266 23.6954 33.8607 23.6954 32.7778C23.6954 24.8909 27.5371 17.9077 33.4388 13.6222C38.2686 7.93849 40.6878 6.17629 43.3547 5.53683C45.1774 5.0998 45.5246 5.97387 44.3962 8.15906C48.302 5.53683 51.3399 4.53165 53.5098 5.1435C55.6797 5.75535 55.6797 6.49832 53.5098 7.37239C57.7628 6.41091 60.5403 6.41091 61.8422 7.37239C62.6315 7.95527 63.5206 11.0019 62.0894 13.6684C63.2736 14.566 63.9688 15.6562 64.334 16.7524C68.2015 20.9609 70.5652 26.5914 70.5652 32.7778C70.5652 33.8607 70.5626 34.9266 70.5446 35.9709ZM36.1488 16.8501C34.467 17.7171 32.984 18.7806 31.6817 19.9815C31.1693 20.5696 30.6842 21.1936 30.2262 21.8523C27.2182 26.1779 25.5764 31.8591 25.5181 36.7111C25.5181 36.7656 25.5182 36.82 25.5183 36.8867L25.5186 36.9662C25.5467 44.2672 26.808 49.5647 29.7966 53.9108C33.0787 58.6836 38.6029 62.4483 47.1303 65.4496C55.6577 62.4483 61.1819 58.6836 64.464 53.9108C67.4526 49.5647 68.7139 44.2672 68.742 36.9662L68.7423 36.8836L68.7423 36.8742C68.7424 36.82 68.7425 36.7656 68.7426 36.7333C68.6895 32.3008 67.327 27.2009 64.8183 23.06C64.5162 22.6539 64.1997 22.2557 63.8683 21.8667C63.8008 21.951 63.7325 22.0189 63.6649 22.0688C62.363 23.0303 59.5855 23.0303 55.3325 22.0688C57.5024 22.9429 57.5024 23.6859 55.3325 24.2977C53.1626 24.9096 50.1248 23.9044 46.2189 21.2822C47.3473 23.4674 47.0001 24.3414 45.1774 23.9044C42.679 23.3053 40.398 21.7209 36.1488 16.8501ZM61.0252 77.438C60.378 77.1404 59.7739 76.8524 59.2062 76.5689H35.0544C34.4867 76.8524 33.8826 77.1404 33.2354 77.438C33.8063 78.0561 34.9429 78.7177 36.6015 79.2839C39.3485 80.2217 43.1077 80.7644 47.1303 80.7644C51.1529 80.7644 54.9121 80.2217 57.6591 79.2839C59.3177 78.7177 60.4543 78.0561 61.0252 77.438ZM59.2062 76.5689C56.98 75.4574 55.3145 74.4169 53.8176 73.1559C51.6517 71.3313 50.1524 69.2088 49.3938 66.6969C48.8465 66.8992 48.2876 67.098 47.717 67.2934L47.1303 67.4943L46.5436 67.2934C45.973 67.098 45.4141 66.8992 44.8668 66.6969C44.1082 69.2088 42.6089 71.3313 40.443 73.1559C38.9461 74.4169 37.2806 75.4574 35.0544 76.5689H59.2062ZM47.1303 94.4C21.2448 94.4 0.260498 73.2678 0.260498 47.2C0.260498 21.1322 21.2448 0 47.1303 0C73.0158 0 94.0001 21.1322 94.0001 47.2C94.0001 73.2678 73.0158 94.4 47.1303 94.4ZM47.1303 92.5644C72.0091 92.5644 92.1774 72.2541 92.1774 47.2C92.1774 22.1459 72.0091 1.83556 47.1303 1.83556C22.2515 1.83556 2.08321 22.1459 2.08321 47.2C2.08321 72.2541 22.2515 92.5644 47.1303 92.5644ZM47.1303 59.7867C44.6376 59.7867 42.3809 58.1696 40.3602 54.9356C42.1698 53.8498 43.5764 53.1006 44.5801 52.6882C45.4008 52.3509 46.1858 52.8378 47.0652 52.8378C47.9324 52.8378 48.8361 52.3462 49.6462 52.6742C50.6585 53.084 52.0765 53.8378 53.9004 54.9356C51.8797 58.1696 49.623 59.7867 47.1303 59.7867ZM44.266 55.3289C45.1826 56.203 46.12 56.64 47.0782 56.64C48.0365 56.64 49.0086 56.203 49.9946 55.3289H44.266ZM36.9752 40.059C35.9685 40.059 35.1525 39.9064 35.1525 38.7478C35.1525 37.5893 35.9685 36.6501 36.9752 36.6501C37.9818 36.6501 38.7979 37.5893 38.7979 38.7478C38.7979 39.9064 37.9818 40.059 36.9752 40.059ZM56.2439 38.7784C54.4982 39.5624 54.0714 40.2874 53.7226 39.8215C53.3738 39.3555 54.1608 37.4704 55.7906 36.9571C55.886 36.927 55.9948 36.8677 56.1043 36.8236C57.2371 36.3671 58.5874 36.8915 59.0206 37.4704C59.7084 38.3893 57.9895 37.9944 56.2439 38.7784Z" fill="black"/>
<path fill-rule="evenodd" clip-rule="evenodd" d="M70.5446 35.9709C70.5555 36.2228 70.5623 36.4697 70.5652 36.7111C70.5652 36.767 70.5651 36.8229 70.565 36.8787C70.5651 36.9104 70.5652 36.9419 70.5652 36.9733C70.5151 49.869 66.7697 59.3971 51.0657 65.909C53.9103 76.1938 70.3578 76.7128 74.3698 83.3341C73.8883 83.7028 73.3992 84.0619 72.9028 84.4112C71.9329 82.6641 69.5337 81.1857 64.9757 79.1824C64.8172 79.1127 63.7719 78.6573 62.9755 78.3088C61.0979 81.1025 54.71 82.8622 47.1303 82.8622C39.5506 82.8622 33.1627 81.1025 31.2851 78.3088C30.4887 78.6573 29.4434 79.1127 29.285 79.1824C24.7269 81.1857 22.3277 82.6641 21.3578 84.4112C20.8614 84.0619 20.3723 83.7028 19.8908 83.3341C23.9028 76.7128 40.3503 76.1938 43.1949 65.909C27.4909 59.3971 23.7455 49.869 23.6959 36.9733C23.6954 36.9419 23.6955 36.9104 23.6956 36.8787C23.6955 36.8229 23.6954 36.767 23.6954 36.7111C23.6983 36.4697 23.7051 36.2228 23.716 35.9709C23.698 34.9266 23.6954 33.8607 23.6954 32.7778C23.6954 24.8909 27.5371 17.9077 33.4388 13.6222C38.2686 7.93849 40.6878 6.17629 43.3547 5.53683C45.1774 5.0998 45.5246 5.97387 44.3962 8.15906C48.302 5.53683 51.3399 4.53165 53.5098 5.1435C55.6797 5.75535 55.6797 6.49832 53.5098 7.37239C57.7628 6.41091 60.5403 6.41091 61.8422 7.37239C62.6315 7.95527 63.5206 11.0019 62.0894 13.6684C63.2736 14.566 63.9688 15.6562 64.334 16.7524C68.2015 20.9609 70.5652 26.5914 70.5652 32.7778C70.5652 33.8607 70.5626 34.9266 70.5446 35.9709ZM36.1488 16.8501C34.467 17.7171 32.984 18.7806 31.6817 19.9815C31.1693 20.5696 30.6842 21.1936 30.2262 21.8523C27.2182 26.1779 25.5764 31.8591 25.5181 36.7111C25.5181 36.7656 25.5182 36.82 25.5183 36.8867L25.5186 36.9662C25.5467 44.2672 26.808 49.5647 29.7966 53.9108C33.0787 58.6836 38.6029 62.4483 47.1303 65.4496C55.6577 62.4483 61.1819 58.6836 64.464 53.9108C67.4526 49.5647 68.7139 44.2672 68.742 36.9662L68.7423 36.8836L68.7423 36.8742C68.7424 36.82 68.7425 36.7656 68.7426 36.7333C68.6895 32.3008 67.327 27.2009 64.8183 23.06C64.5162 22.6539 64.1997 22.2557 63.8683 21.8667C63.8008 21.951 63.7325 22.0189 63.6649 22.0688C62.363 23.0303 59.5855 23.0303 55.3325 22.0688C57.5024 22.9429 57.5024 23.6859 55.3325 24.2977C53.1626 24.9096 50.1248 23.9044 46.2189 21.2822C47.3473 23.4674 47.0001 24.3414 45.1774 23.9044C42.679 23.3053 40.398 21.7209 36.1488 16.8501ZM61.0252 77.438C60.378 77.1404 59.7739 76.8524 59.2062 76.5689H35.0544C34.4867 76.8524 33.8826 77.1404 33.2354 77.438C33.8063 78.0561 34.9429 78.7177 36.6015 79.2839C39.3485 80.2217 43.1077 80.7644 47.1303 80.7644C51.1529 80.7644 54.9121 80.2217 57.6591 79.2839C59.3177 78.7177 60.4543 78.0561 61.0252 77.438ZM59.2062 76.5689C56.98 75.4574 55.3145 74.4169 53.8176 73.1559C51.6517 71.3313 50.1524 69.2088 49.3938 66.6969C48.8465 66.8992 48.2876 67.098 47.717 67.2934L47.1303 67.4943L46.5436 67.2934C45.973 67.098 45.4141 66.8992 44.8668 66.6969C44.1082 69.2088 42.6089 71.3313 40.443 73.1559C38.9461 74.4169 37.2806 75.4574 35.0544 76.5689H59.2062ZM47.1303 94.4C21.2448 94.4 0.260498 73.2678 0.260498 47.2C0.260498 21.1322 21.2448 0 47.1303 0C73.0158 0 94.0001 21.1322 94.0001 47.2C94.0001 73.2678 73.0158 94.4 47.1303 94.4ZM47.1303 92.5644C72.0091 92.5644 92.1774 72.2541 92.1774 47.2C92.1774 22.1459 72.0091 1.83556 47.1303 1.83556C22.2515 1.83556 2.08321 22.1459 2.08321 47.2C2.08321 72.2541 22.2515 92.5644 47.1303 92.5644ZM47.1303 59.7867C44.6376 59.7867 42.3809 58.1696 40.3602 54.9356C42.1698 53.8498 43.5764 53.1006 44.5801 52.6882C45.4008 52.3509 46.1858 52.8378 47.0652 52.8378C47.9324 52.8378 48.8361 52.3462 49.6462 52.6742C50.6585 53.084 52.0765 53.8378 53.9004 54.9356C51.8797 58.1696 49.623 59.7867 47.1303 59.7867ZM44.266 55.3289C45.1826 56.203 46.12 56.64 47.0782 56.64C48.0365 56.64 49.0086 56.203 49.9946 55.3289H44.266ZM36.9752 40.059C35.9685 40.059 35.1525 39.9064 35.1525 38.7478C35.1525 37.5893 35.9685 36.6501 36.9752 36.6501C37.9818 36.6501 38.7979 37.5893 38.7979 38.7478C38.7979 39.9064 37.9818 40.059 36.9752 40.059ZM56.2439 38.7784C54.4982 39.5624 54.0714 40.2874 53.7226 39.8215C53.3738 39.3555 54.1608 37.4704 55.7906 36.9571C55.886 36.927 55.9948 36.8677 56.1043 36.8236C57.2371 36.3671 58.5874 36.8915 59.0206 37.4704C59.7084 38.3893 57.9895 37.9944 56.2439 38.7784Z" fill="white"/>
</g>
<defs>
<clipPath id="clip0">
<rect width="94" height="118" fill="white"/>
</clipPath>
</defs>
</svg>
