<svg width="94" height="118" viewBox="0 0 94 118" fill="none" xmlns="http://www.w3.org/2000/svg">
<path fill-rule="evenodd" clip-rule="evenodd" d="M29.2604 53.3748C32.6741 55.3974 37.4912 57.1608 37.9917 55.0667C38.862 52.9689 39.5148 51.6141 39.95 51.0022L47 49.0356L54.05 51.0022C54.4852 51.6141 55.138 52.9689 56.0083 55.0667C56.5088 57.1608 61.3259 55.3974 64.7396 53.3748C67.4798 49.1297 68.6447 43.9698 68.6717 36.9662L68.6721 36.8836L68.672 36.8742C68.6722 36.82 68.6722 36.7656 68.6724 36.7333C68.6137 31.8591 66.9674 26.1779 63.9511 21.8523C61.9448 18.9752 59.4217 16.7592 56.3571 15.3154C53.4291 15.5711 50.6661 17.3067 47 17.3067C43.3339 17.3067 40.5709 15.5711 37.6429 15.3154C34.5783 16.7592 32.0552 18.9752 30.0489 21.8523C27.0326 26.1779 25.3863 31.8591 25.3278 36.7111C25.3278 36.7656 25.3278 36.82 25.328 36.8867L25.3283 36.9662C25.3553 43.9698 26.5202 49.1297 29.2605 53.3748H29.2604ZM52.7472 72.2883C51.087 70.666 49.9129 68.8207 49.2698 66.6969C48.7209 66.8992 48.1605 67.098 47.5884 67.2934L47 67.4943L46.4116 67.2934C45.8395 67.098 45.2791 66.8992 44.7302 66.6969C44.0888 68.8149 42.9194 70.656 41.2664 72.2751L46.9357 75.6872L52.7472 72.2883ZM21.1559 84.4112C20.6581 84.0619 20.1677 83.7028 19.6848 83.3341C23.708 76.7128 40.2012 76.1938 43.0537 65.909C27.306 59.3971 23.5503 49.869 23.5005 36.9733C23.5 36.9419 23.5001 36.9104 23.5002 36.8787C23.5001 36.8229 23.5 36.767 23.5 36.7111C23.6066 27.8443 29.0314 11.5378 47 11.5378C64.9686 11.5378 70.3934 27.8443 70.5 36.7111C70.5 36.767 70.4999 36.8229 70.4998 36.8787C70.4999 36.9104 70.5 36.9419 70.5 36.9733C70.4498 49.869 66.694 59.3971 50.9463 65.909C53.7988 76.1938 70.292 76.7128 74.3151 83.3341C73.8323 83.7028 73.3419 84.0619 72.8441 84.4112C72.8029 84.4402 72.7616 84.4691 72.7202 84.4979C71.7519 82.7456 69.3455 81.265 64.7644 79.2571C64.5422 79.1598 62.5821 78.3086 61.9955 78.0492C58.4461 76.4799 56.046 75.1991 54.0713 73.638L46.9223 77.8191L39.8751 73.5776C37.8894 75.164 35.466 76.461 31.874 78.0492C31.2873 78.3086 29.3272 79.1598 29.1051 79.2571C24.5811 81.24 22.1779 82.7086 21.1862 84.4325C21.1761 84.4254 21.166 84.4183 21.1559 84.4112H21.1559ZM47 94.4C21.0426 94.4 0 73.2678 0 47.2C0 21.1322 21.0426 0 47 0C72.9574 0 94 21.1322 94 47.2C94 73.2678 72.9574 94.4 47 94.4ZM47 92.5644C71.9479 92.5644 92.1722 72.2541 92.1722 47.2C92.1722 22.1459 71.9479 1.83556 47 1.83556C22.0521 1.83556 1.82778 22.1459 1.82778 47.2C1.82778 72.2541 22.0521 92.5644 47 92.5644ZM46.4778 63.72H47.5222C50.8055 63.7813 52.9815 62.8635 54.05 60.9667C55.1185 59.0698 54.7704 56.3165 53.0056 52.7067L47 51.0022L40.9944 52.7067C39.2296 56.3165 38.8815 59.0698 39.95 60.9667C41.0185 62.8635 43.1945 63.7813 46.4778 63.72ZM41.8506 56.7134C41.3776 56.5366 41.1369 56.0081 41.313 55.5331C41.4891 55.0581 42.0153 54.8164 42.4883 54.9932C44.025 55.5678 45.5276 55.8533 47 55.8533C48.4681 55.8533 49.9215 55.5695 51.3655 54.9992C51.8353 54.8137 52.3658 55.0457 52.5505 55.5175C52.7352 55.9892 52.5042 56.5219 52.0345 56.7074C50.38 57.3608 48.7 57.6889 47 57.6889C45.3042 57.6889 43.5865 57.3625 41.8506 56.7134ZM64.4671 36.4489H67.8889C67.8889 37.7641 65.5312 37.9832 64.7457 38.7759C64.5894 42.6465 62.5721 46.133 57.8755 46.133C53.1635 46.133 50.2293 42.6238 50.0157 38.7381L49.9931 38.7603C49.2114 37.9575 48.1463 37.4978 47.0058 37.4978C45.9766 37.4978 45.0086 37.872 44.2541 38.5363C44.1328 42.5014 41.179 46.133 36.3856 46.133C31.8445 46.133 29.8082 42.8735 29.5371 39.159L29.5056 39.3333C29.5056 38.027 26.1111 38.027 26.1111 36.4489H29.794C30.6821 34.0013 33.5192 33.5348 36.8818 33.5348C40.1439 33.5348 42.9114 33.9738 43.8847 36.2348C44.8197 35.6947 45.8902 35.4 47.0058 35.4C48.2023 35.4 49.3465 35.7391 50.3269 36.3553C51.2529 33.9893 54.0601 33.5348 57.3794 33.5348C60.7419 33.5348 63.579 34.0013 64.4671 36.4489ZM33.9444 40.3822C35.5307 40.3822 36.8167 39.0908 36.8167 37.4978C36.8167 35.9047 35.5307 35.6622 33.9444 35.6622C32.3582 35.6622 31.0722 35.9047 31.0722 37.4978C31.0722 39.0908 32.3582 40.3822 33.9444 40.3822ZM54.5722 40.3822C56.1585 40.3822 57.4444 39.0908 57.4444 37.4978C57.4444 35.9047 56.1585 35.6622 54.5722 35.6622C52.9859 35.6622 51.7 35.9047 51.7 37.4978C51.7 39.0908 52.9859 40.3822 54.5722 40.3822Z" fill="black"/>
<path fill-rule="evenodd" clip-rule="evenodd" d="M29.2604 53.3748C32.6741 55.3974 37.4912 57.1608 37.9917 55.0667C38.862 52.9689 39.5148 51.6141 39.95 51.0022L47 49.0356L54.05 51.0022C54.4852 51.6141 55.138 52.9689 56.0083 55.0667C56.5088 57.1608 61.3259 55.3974 64.7396 53.3748C67.4798 49.1297 68.6447 43.9698 68.6717 36.9662L68.6721 36.8836L68.672 36.8742C68.6722 36.82 68.6722 36.7656 68.6724 36.7333C68.6137 31.8591 66.9674 26.1779 63.9511 21.8523C61.9448 18.9752 59.4217 16.7592 56.3571 15.3154C53.4291 15.5711 50.6661 17.3067 47 17.3067C43.3339 17.3067 40.5709 15.5711 37.6429 15.3154C34.5783 16.7592 32.0552 18.9752 30.0489 21.8523C27.0326 26.1779 25.3863 31.8591 25.3278 36.7111C25.3278 36.7656 25.3278 36.82 25.328 36.8867L25.3283 36.9662C25.3553 43.9698 26.5202 49.1297 29.2605 53.3748H29.2604ZM52.7472 72.2883C51.087 70.666 49.9129 68.8207 49.2698 66.6969C48.7209 66.8992 48.1605 67.098 47.5884 67.2934L47 67.4943L46.4116 67.2934C45.8395 67.098 45.2791 66.8992 44.7302 66.6969C44.0888 68.8149 42.9194 70.656 41.2664 72.2751L46.9357 75.6872L52.7472 72.2883ZM21.1559 84.4112C20.6581 84.0619 20.1677 83.7028 19.6848 83.3341C23.708 76.7128 40.2012 76.1938 43.0537 65.909C27.306 59.3971 23.5503 49.869 23.5005 36.9733C23.5 36.9419 23.5001 36.9104 23.5002 36.8787C23.5001 36.8229 23.5 36.767 23.5 36.7111C23.6066 27.8443 29.0314 11.5378 47 11.5378C64.9686 11.5378 70.3934 27.8443 70.5 36.7111C70.5 36.767 70.4999 36.8229 70.4998 36.8787C70.4999 36.9104 70.5 36.9419 70.5 36.9733C70.4498 49.869 66.694 59.3971 50.9463 65.909C53.7988 76.1938 70.292 76.7128 74.3151 83.3341C73.8323 83.7028 73.3419 84.0619 72.8441 84.4112C72.8029 84.4402 72.7616 84.4691 72.7202 84.4979C71.7519 82.7456 69.3455 81.265 64.7644 79.2571C64.5422 79.1598 62.5821 78.3086 61.9955 78.0492C58.4461 76.4799 56.046 75.1991 54.0713 73.638L46.9223 77.8191L39.8751 73.5776C37.8894 75.164 35.466 76.461 31.874 78.0492C31.2873 78.3086 29.3272 79.1598 29.1051 79.2571C24.5811 81.24 22.1779 82.7086 21.1862 84.4325C21.1761 84.4254 21.166 84.4183 21.1559 84.4112H21.1559ZM47 94.4C21.0426 94.4 0 73.2678 0 47.2C0 21.1322 21.0426 0 47 0C72.9574 0 94 21.1322 94 47.2C94 73.2678 72.9574 94.4 47 94.4ZM47 92.5644C71.9479 92.5644 92.1722 72.2541 92.1722 47.2C92.1722 22.1459 71.9479 1.83556 47 1.83556C22.0521 1.83556 1.82778 22.1459 1.82778 47.2C1.82778 72.2541 22.0521 92.5644 47 92.5644ZM46.4778 63.72H47.5222C50.8055 63.7813 52.9815 62.8635 54.05 60.9667C55.1185 59.0698 54.7704 56.3165 53.0056 52.7067L47 51.0022L40.9944 52.7067C39.2296 56.3165 38.8815 59.0698 39.95 60.9667C41.0185 62.8635 43.1945 63.7813 46.4778 63.72ZM41.8506 56.7134C41.3776 56.5366 41.1369 56.0081 41.313 55.5331C41.4891 55.0581 42.0153 54.8164 42.4883 54.9932C44.025 55.5678 45.5276 55.8533 47 55.8533C48.4681 55.8533 49.9215 55.5695 51.3655 54.9992C51.8353 54.8137 52.3658 55.0457 52.5505 55.5175C52.7352 55.9892 52.5042 56.5219 52.0345 56.7074C50.38 57.3608 48.7 57.6889 47 57.6889C45.3042 57.6889 43.5865 57.3625 41.8506 56.7134ZM64.4671 36.4489H67.8889C67.8889 37.7641 65.5312 37.9832 64.7457 38.7759C64.5894 42.6465 62.5721 46.133 57.8755 46.133C53.1635 46.133 50.2293 42.6238 50.0157 38.7381L49.9931 38.7603C49.2114 37.9575 48.1463 37.4978 47.0058 37.4978C45.9766 37.4978 45.0086 37.872 44.2541 38.5363C44.1328 42.5014 41.179 46.133 36.3856 46.133C31.8445 46.133 29.8082 42.8735 29.5371 39.159L29.5056 39.3333C29.5056 38.027 26.1111 38.027 26.1111 36.4489H29.794C30.6821 34.0013 33.5192 33.5348 36.8818 33.5348C40.1439 33.5348 42.9114 33.9738 43.8847 36.2348C44.8197 35.6947 45.8902 35.4 47.0058 35.4C48.2023 35.4 49.3465 35.7391 50.3269 36.3553C51.2529 33.9893 54.0601 33.5348 57.3794 33.5348C60.7419 33.5348 63.579 34.0013 64.4671 36.4489ZM33.9444 40.3822C35.5307 40.3822 36.8167 39.0908 36.8167 37.4978C36.8167 35.9047 35.5307 35.6622 33.9444 35.6622C32.3582 35.6622 31.0722 35.9047 31.0722 37.4978C31.0722 39.0908 32.3582 40.3822 33.9444 40.3822ZM54.5722 40.3822C56.1585 40.3822 57.4444 39.0908 57.4444 37.4978C57.4444 35.9047 56.1585 35.6622 54.5722 35.6622C52.9859 35.6622 51.7 35.9047 51.7 37.4978C51.7 39.0908 52.9859 40.3822 54.5722 40.3822Z" fill="white"/>
</svg>
