<svg width="144" height="81" viewBox="0 0 144 81" fill="none" xmlns="http://www.w3.org/2000/svg">
<path d="M46.7679 81C49.8601 81 52.3756 78.4846 52.3756 75.3923V5.60769C52.3756 2.51542 49.8601 0 46.7679 0H5.60769C2.51542 0 0 2.51542 0 5.60769V75.3923C0 78.4846 2.51542 81 5.60769 81H46.7679ZM1.24615 75.3923V5.60769C1.24615 3.203 3.203 1.24615 5.60769 1.24615H46.7679C49.1726 1.24615 51.1294 3.203 51.1294 5.60769V75.3923C51.1294 77.797 49.1726 79.7538 46.7679 79.7538H5.60769C3.203 79.7538 1.24615 77.797 1.24615 75.3923Z" fill="white"/>
<path d="M47.3898 8.79883H4.9834V72.3028H47.3898V8.79883ZM46.1436 71.0566H6.22955V10.045H46.1436V71.0566Z" fill="white"/>
<path d="M42.4051 60.4336H9.96802V67.3173H42.4051V60.4336ZM41.159 66.0711H11.2142V61.6797H41.159V66.0711Z" fill="white"/>
<path d="M42.4051 51.1035H9.96802V57.9872H42.4051V51.1035ZM41.159 56.741H11.2142V52.3497H41.159V56.741Z" fill="white"/>
<path d="M26.1929 73.0879C24.5573 73.0879 23.2266 74.4186 23.2266 76.0542C23.2266 77.6965 24.5573 79.0321 26.1929 79.0321C27.8284 79.0321 29.1586 77.6965 29.1586 76.0542C29.1586 74.4186 27.8284 73.0879 26.1929 73.0879ZM26.1929 77.7859C25.2443 77.7859 24.4727 77.0089 24.4727 76.0542C24.4727 75.1056 25.2443 74.334 26.1929 74.334C27.1409 74.334 27.9124 75.1056 27.9124 76.0542C27.9124 77.0089 27.1409 77.7859 26.1929 77.7859Z" fill="white"/>
<path d="M34.6562 4.32031H22.3018V5.56647H34.6562V4.32031Z" fill="white"/>
<path d="M20.1629 4.32031H17.7192V5.56647H20.1629V4.32031Z" fill="white"/>
<path d="M42.2695 36.8334V13.7832H10.1062V36.8334C12.9636 36.8334 43.7303 36.8334 42.2695 36.8334ZM13.2234 35.5872L19.1779 24.5964L20.9379 27.8751L17.229 35.5872H13.2234ZM18.6157 35.5872C27.9897 16.1 25.8026 20.6467 26.1839 19.8539C28.4818 24.6319 23.0784 13.3969 33.7507 35.5872H18.6157ZM35.1399 35.5872L31.8813 28.8123L33.3895 26.3439L39.0872 35.5872H35.1399ZM11.3524 15.0294H41.0234V35.5872H40.5509L33.3846 23.9611L31.238 27.4751L26.1839 16.9673L21.6062 26.4857L19.1828 21.9702L11.8065 35.5872H11.3524V15.0294H11.3524Z" fill="white"/>
<path d="M35.5513 22.969C37.0835 22.969 38.3302 21.7223 38.3302 20.1901C38.3302 18.6507 37.0835 17.3984 35.5513 17.3984C34.0125 17.3984 32.7603 18.6507 32.7603 20.1901C32.7603 21.7223 34.0125 22.969 35.5513 22.969ZM35.5513 18.6446C36.3965 18.6446 37.0841 19.3377 37.0841 20.1901C37.0841 21.0353 36.3965 21.7229 35.5513 21.7229C34.6995 21.7229 34.0064 21.0353 34.0064 20.1901C34.0064 19.3377 34.6995 18.6446 35.5513 18.6446Z" fill="white"/>
<path d="M18.5292 39.9277H9.96802V48.489H18.5292V39.9277ZM17.2831 47.2428H11.2142V41.1739H17.2831V47.2428Z" fill="white"/>
<path d="M30.4682 48.489V39.9277H21.907V48.489H30.4682ZM23.1531 41.1739H29.2221V47.2428H23.1531V41.1739Z" fill="white"/>
<path d="M33.8464 48.489H42.4077V39.9277H33.8464V48.489ZM35.0926 41.1739H41.1615V47.2428H35.0926V41.1739Z" fill="white"/>
<path d="M91.6228 44.9336H70.74V61.8157H91.6228V44.9336V44.9336ZM90.3766 60.5695H71.9861V46.1797H90.3766V60.5695V60.5695Z" fill="white"/>
<path d="M82.9435 58.9482H87.8904L82.7098 46.4453L79.8387 53.3399L78.0233 50.0609L73.0886 58.9482H81.5184H82.9435ZM82.7074 49.6933L86.026 57.7021H82.2536L80.6094 54.7321L82.7074 49.6933ZM75.2061 57.7021L78.0209 52.6323L79.2266 54.8095L79.2257 54.8118L80.8277 57.7021H75.2061Z" fill="white"/>
<path d="M94.7505 61.8157H115.635V44.9336H94.7505V61.8157ZM95.9966 46.1797H114.388V60.5695H95.9966V46.1797Z" fill="white"/>
<path d="M104.158 52.293L102.82 49.8073L97.917 58.9491H106.325H107.74H112.422L106.697 46.9883L104.158 52.293ZM100 57.7029L102.823 52.4384L105.654 57.7029H100ZM107.07 57.7029L104.89 53.6486L106.697 49.8749L110.443 57.7029H107.07Z" fill="white"/>
<path d="M70.1462 81H139.308C141.712 81 143.669 79.0432 143.669 76.6385C143.669 76.5033 143.669 75.6524 143.674 4.36154C143.674 1.95685 141.717 0 139.313 0H70.1511C67.7464 0 65.7895 1.95685 65.7895 4.36154C65.7888 15.9945 65.7847 76.4726 65.7847 76.6385C65.7847 79.0432 67.7415 81 70.1462 81ZM67.0357 4.36154C67.0357 2.64382 68.4327 1.24615 70.1511 1.24615H139.313C141.031 1.24615 142.428 2.64382 142.428 4.36154V7.09115H67.0357V4.36154V4.36154ZM67.0308 8.34035H142.423V76.6385C142.423 78.3562 141.026 79.7538 139.308 79.7538H70.1462C68.4279 79.7538 67.0308 78.3562 67.0308 76.6385V8.34035V8.34035Z" fill="white"/>
<path d="M138.686 12.0762H70.7705V20.3003H138.686V12.0762ZM137.44 19.0541H72.0167V13.3223H137.44V19.0541Z" fill="white"/>
<path d="M115.634 29.2207H70.7705V41.6445H115.634V29.2207H115.634ZM114.388 40.3984H72.0167V30.4669H114.388V40.3984H114.388Z" fill="white"/>
<path d="M120.606 36.0557H138.686V29.2207H120.606V36.0557ZM121.852 30.4669H137.44V34.8095H121.852V30.4669Z" fill="white"/>
<path d="M120.606 76.0161H138.686V66.8105H120.606V76.0161ZM121.852 68.0567H137.44V74.77H121.852V68.0567Z" fill="white"/>
<path d="M88.8202 66.8105H70.74V76.0161H88.8202V66.8105ZM87.574 74.77H71.9861V68.0567H87.574V74.77Z" fill="white"/>
<path d="M120.606 63.8168H138.686V39.1523H120.606V63.8168ZM121.852 40.3985H137.44V62.5707H121.852V40.3985Z" fill="white"/>
<path d="M75.3486 2.18164C74.2558 2.18164 73.3674 3.0767 73.3674 4.17743C73.3674 5.27025 74.2558 6.15923 75.3486 6.15923C76.4414 6.15923 77.331 5.27025 77.331 4.17743C77.331 3.0767 76.4414 2.18164 75.3486 2.18164ZM75.3486 4.91307C74.9434 4.91307 74.6136 4.58328 74.6136 4.17743C74.6136 3.76428 74.9434 3.42779 75.3486 3.42779C75.7551 3.42779 76.0849 3.76428 76.0849 4.17743C76.0849 4.58328 75.7551 4.91307 75.3486 4.91307Z" fill="white"/>
<path d="M81.9433 2.18164C80.8505 2.18164 79.9622 3.0767 79.9622 4.17743C79.9622 5.27025 80.8505 6.15923 81.9433 6.15923C83.0362 6.15923 83.9258 5.27025 83.9258 4.17743C83.9258 3.0767 83.0362 2.18164 81.9433 2.18164ZM81.9433 4.91307C81.5381 4.91307 81.2083 4.58328 81.2083 4.17743C81.2083 3.76428 81.5381 3.42779 81.9433 3.42779C82.3498 3.42779 82.6796 3.76428 82.6796 4.17743C82.6796 4.58328 82.3498 4.91307 81.9433 4.91307Z" fill="white"/>
<path d="M88.5378 2.18164C87.445 2.18164 86.5566 3.0767 86.5566 4.17743C86.5566 5.27025 87.445 6.15923 88.5378 6.15923C89.6306 6.15923 90.5202 5.27025 90.5202 4.17743C90.5202 3.0767 89.6306 2.18164 88.5378 2.18164ZM88.5378 4.91307C88.1326 4.91307 87.8028 4.58328 87.8028 4.17743C87.8028 3.76428 88.1326 3.42779 88.5378 3.42779C88.9443 3.42779 89.2741 3.76428 89.2741 4.17743C89.2741 4.58328 88.9443 4.91307 88.5378 4.91307Z" fill="white"/>
<path d="M135.473 3.54883H102.142V4.79498H135.473V3.54883Z" fill="white"/>
<path d="M79.0312 24.2344H73.5439V25.4805H79.0312V24.2344Z" fill="white"/>
<path d="M88.5111 24.2344H83.0239V25.4805H88.5111V24.2344Z" fill="white"/>
<path d="M97.9911 24.2344H92.5039V25.4805H97.9911V24.2344Z" fill="white"/>
<path d="M107.471 24.2344H101.985V25.4805H107.471V24.2344Z" fill="white"/>
<path d="M116.951 24.2344H111.465V25.4805H116.951V24.2344Z" fill="white"/>
<path d="M126.432 24.2344H120.945V25.4805H126.432V24.2344Z" fill="white"/>
<path d="M135.913 24.2344H130.425V25.4805H135.913V24.2344Z" fill="white"/>
<path d="M115.546 66.9805H92.4321V68.2266H115.546V66.9805Z" fill="white"/>
<path d="M111.807 70.7891H92.4321V72.0352H111.807V70.7891Z" fill="white"/>
<path d="M105.576 74.5996H92.4321V75.8458H105.576V74.5996Z" fill="white"/>
<path d="M133.907 42.748H125.385V43.9942H133.907V42.748Z" fill="white"/>
<path d="M133.907 48.1562H125.385V49.4024H133.907V48.1562Z" fill="white"/>
<path d="M133.907 53.5645H125.385V54.8106H133.907V53.5645Z" fill="white"/>
<path d="M133.907 58.9766H125.385V60.2227H133.907V58.9766Z" fill="white"/>
</svg>
