<svg width="176" height="220" viewBox="0 0 176 220" fill="none" xmlns="http://www.w3.org/2000/svg">
<path d="M123.61 157.324C120.482 156.283 121.007 154.247 120.84 152.622C120.122 145.635 119.41 138.645 118.855 131.644C118.296 124.608 113.94 120.553 107.828 118.684C102.916 117.183 97.6158 116.949 92.7126 116.188C91.7655 118.143 90.71 120.044 89.551 121.881C86.9939 125.434 84.5935 125.193 82.5702 121.284C82.1459 120.299 81.7846 119.289 81.4882 118.258C77.4895 119.307 73.5426 120.217 69.6737 121.384C61.6794 123.797 58.1854 129.878 57.5554 137.631C57.0677 143.632 57.3887 149.698 57.355 155.736C57.485 157.573 57.1013 159.41 56.2468 161.042C55.5743 160.326 54.4235 159.682 54.3025 158.882C52.7665 149.812 53.105 140.524 55.2972 131.591C57.3283 123.79 62.9027 119.573 70.3413 117.492C73.8718 116.503 77.4549 115.703 80.9412 114.836C80.573 108.982 80.4691 108.829 75.8112 107.824C72.189 107.043 68.5179 106.454 64.9394 105.511C56.0943 103.18 49.5165 98.2545 46.6486 89.1471C42.3984 75.6499 39.2941 61.9778 40.7734 47.7038C41.7217 37.911 45.9346 28.7214 52.7352 21.6116C55.7635 18.3859 59.9741 17.7042 63.9051 16.9737C72.9106 15.3263 82.1071 14.99 91.2088 15.9754C99.7376 16.8627 105.513 21.3938 110.086 28.2275C115.755 36.6983 118.669 46.0515 120.13 56.0594C121.481 65.3213 122.965 74.5017 123.515 83.911C124.153 94.8219 115.881 103.319 106.753 105.633C103.35 106.495 99.9355 107.311 96.5094 108.08C93.5976 108.732 92.7024 110.4 93.4823 112.817C98.5409 113.571 103.452 113.763 108.025 115.105C115.868 117.408 121.397 122.321 122.263 131.063C123.032 138.831 123.733 146.604 124.367 154.385C124.259 155.396 124.004 156.386 123.61 157.324V157.324ZM81.8309 70.1383C88.2109 67.0934 93.3059 68.5383 98.062 71.7773C100.968 73.7442 103.775 75.8553 106.47 78.1027C109.584 80.7152 112.791 80.4074 114.277 76.6475C115.302 73.9363 115.82 71.0596 115.806 68.1609C115.811 64.7268 114.592 61.2885 116.555 57.9621C116.872 57.4246 116.457 56.4619 116.398 55.6942C115.611 45.4541 111.63 36.4247 105.78 28.1573C102.226 23.1348 97.4715 19.7171 91.1377 19.6582C82.7514 19.5804 74.3466 19.7004 65.9769 20.1946C62.6323 20.2957 59.3798 21.3138 56.5745 23.1377C53.7691 24.9615 51.5188 27.5211 50.0692 30.5369C46.1115 38.0918 43.1861 46.0013 43.8277 54.6019C44.5225 63.9156 43.45 73.8479 50.9273 81.4173C52.6268 83.1378 54.3674 84.8176 56.5079 86.9293C62.704 79.4594 65.9527 69.1054 77.9571 71.0463C77.6347 66.6584 77.4558 62.3795 76.9715 58.1353C76.4628 53.677 75.6091 49.2591 75.0066 44.81C74.9551 43.4475 74.4156 42.1489 73.4864 41.151C72.5572 40.1532 71.3004 39.5226 69.945 39.3741C65.9151 38.5378 61.7354 38.787 57.8334 40.0962C55.5903 40.7937 53.2374 41.9889 49.8283 39.987C53.5913 37.8987 57.6731 36.446 61.9093 35.6874C66.5486 34.6228 71.4199 35.3965 75.5011 37.846C78.9601 39.9623 78.1428 44.4456 78.8178 48.0046C78.9631 48.771 78.9872 49.5595 79.0938 50.3342C79.9648 56.663 80.8422 62.991 81.8309 70.1383ZM68.2628 86.9637C70.4 92.6933 85.3678 94.8588 94.5416 90.1058C96.4661 89.1086 97.7758 86.4611 98.7764 84.3C99.497 82.7431 98.56 78.6133 93.1125 78.2379C82.6333 75.7697 64.5333 78.6133 68.2628 86.9637ZM84.3882 109.791C84.8426 113.406 85.2199 116.409 85.7299 120.466C88.8981 116.348 90.3307 113.04 89.0913 108.63C87.5724 109.005 86.3254 109.313 84.3882 109.791Z" fill="white"/>
<path d="M63.0161 56.2731C61.9182 56.0226 61.1563 55.3484 61.2643 54.3025C61.2723 53.9177 61.3574 53.5384 61.5147 53.1872C61.6719 52.836 61.8982 52.5199 62.18 52.2578C62.4618 51.9957 62.7933 51.7928 63.155 51.6613C63.5167 51.5298 63.9011 51.4722 64.2854 51.4921C64.4794 51.4909 64.6714 51.5317 64.8481 51.6116C65.0249 51.6916 65.1823 51.8088 65.3094 51.9553C65.4366 52.1018 65.5306 52.2741 65.5849 52.4603C65.6393 52.6465 65.6527 52.8423 65.6242 53.0342C65.4767 54.6717 64.8018 55.9742 63.0161 56.2731Z" fill="white"/>
<path d="M95.6128 38.4388C98.149 38.2553 100.676 38.9006 102.814 40.2775C103.489 40.6701 104.046 41.2361 104.428 41.9168C104.81 42.5975 105.003 43.3682 104.987 44.1486C104.912 45.5113 103.34 46.6093 102.69 45.5927C100.047 41.4578 96.0309 42.3897 92.2796 42.1576C91.8941 42.1348 91.5102 42.0896 91.1299 42.0222C90.7428 41.9788 90.383 41.8014 90.1127 41.5209C89.8424 41.2404 89.6785 40.8743 89.6494 40.4858C89.6515 40.0963 89.7877 39.7194 90.0352 39.4186C90.2826 39.1177 90.6262 38.9114 91.008 38.8342C92.5262 38.5954 94.0761 38.5591 95.6128 38.4388Z" fill="white"/>
<path d="M96.0807 57.11C95.0109 56.9019 94.2277 56.331 94.2287 55.2689C94.2075 54.9823 94.2528 54.6946 94.361 54.4284C94.4693 54.1621 94.6376 53.9245 94.8529 53.7341C95.0681 53.5436 95.3245 53.4054 95.6019 53.3304C95.8793 53.2553 96.1704 53.2454 96.4523 53.3013C97.4245 53.3747 98.3422 53.8713 98.3137 55.0282C98.2794 56.4203 97.2577 56.9137 96.0807 57.11Z" fill="white"/>
<path d="M92.3496 86.779C91.2517 86.5285 90.4898 85.8542 90.5978 84.8083C90.6057 84.4236 90.6909 84.0443 90.8482 83.6931C91.0054 83.3418 91.2317 83.0258 91.5135 82.7637C91.7952 82.5015 92.1268 82.2987 92.4885 82.1672C92.8502 82.0356 93.2346 81.9781 93.6189 81.998C93.8129 81.9968 94.0049 82.0375 94.1816 82.1175C94.3584 82.1974 94.5158 82.3147 94.6429 82.4612C94.7701 82.6077 94.8641 82.7799 94.9184 82.9662C94.9727 83.1524 94.9861 83.3482 94.9577 83.5401C94.8102 85.1776 94.1353 86.48 92.3496 86.779Z" fill="white"/>
<path d="M80.8606 142.048V140.62L70.1926 145.45V146.752L80.8606 151.561V150.154L71.9356 146.101L80.8606 142.048ZM87.6564 136.063L81.4614 151.75H82.9734L89.1894 136.063H87.6564ZM89.7775 150.154V151.561L100.446 146.752V145.45L89.7775 140.62V142.048L98.7025 146.101L89.7775 150.154Z" fill="white"/>
</svg>
