<svg width="94" height="118" viewBox="0 0 94 118" fill="none" xmlns="http://www.w3.org/2000/svg">
<path fill-rule="evenodd" clip-rule="evenodd" d="M68.6593 36.1884C68.4899 31.4401 66.8557 26.0177 63.9511 21.8523C61.9448 18.9752 59.4217 16.7592 56.3571 15.3154C53.4291 15.5711 50.6661 17.3067 47 17.3067C43.3339 17.3067 40.5709 15.5711 37.6429 15.3154C34.5783 16.7592 32.0552 18.9752 30.0489 21.8523C27.1411 26.0222 25.5065 31.4519 25.3403 36.184H30.1774C31.1709 33.7987 33.8564 32.7778 37.0135 32.7778C39.8427 32.7778 42.2933 33.5977 43.4867 35.4848C45.8813 34.4825 48.4601 34.4982 50.8786 35.53C52.0614 33.6108 54.5284 32.7778 57.3801 32.7778C60.5767 32.7778 63.2899 33.8244 64.2528 36.2743L68.6593 36.1884ZM68.6586 38.0243L64.6208 38.103C64.6248 38.2005 64.6269 38.2995 64.6269 38.3999C64.6269 42.3813 61.3824 45.6089 57.3801 45.6089C53.3778 45.6089 50.1333 42.3813 50.1333 38.3999C50.1333 37.992 50.1674 37.6086 50.2328 37.2491C48.2321 36.3749 46.124 36.3576 44.1507 37.1956C44.2227 37.5705 44.2602 37.9717 44.2602 38.3999C44.2602 42.3813 41.0157 45.6089 37.0135 45.6089C33.0112 45.6089 29.7667 42.3813 29.7667 38.3999C29.7667 38.2707 29.7701 38.1439 29.7768 38.0196H25.3413C25.4838 44.7813 26.7673 49.7765 29.6182 53.9108C31.7006 56.9308 34.6834 59.5472 38.7596 61.8219C38.4195 60.4505 38.207 59.0728 38.1222 57.6889C37.9799 55.3655 38.5891 53.0055 39.95 50.6089L47 49.2978L54.05 50.6089C55.4109 53.0055 56.0201 55.3655 55.8778 57.6889C55.793 59.0728 55.5805 60.4505 55.2404 61.8219C59.3166 59.5472 62.2994 56.9308 64.3818 53.9108C67.2321 49.7775 68.5156 44.7836 68.6586 38.0243ZM34.9903 38.7243C34.9894 38.6993 34.9889 38.6737 34.9889 38.6475C34.9889 37.5781 35.8072 36.7111 36.8167 36.7111C37.8261 36.7111 38.6444 37.5781 38.6444 38.6475C38.6444 38.6737 38.644 38.6993 38.643 38.7243C38.644 38.7524 38.6444 38.7806 38.6444 38.8089C38.6444 39.9675 37.8261 40.12 36.8167 40.12C35.8072 40.12 34.9889 39.9675 34.9889 38.8089C34.9889 38.7806 34.9894 38.7524 34.9903 38.7243ZM55.357 38.7243C55.356 38.6993 55.3556 38.6737 55.3556 38.6475C55.3556 37.5781 56.1739 36.7111 57.1833 36.7111C58.1928 36.7111 59.0111 37.5781 59.0111 38.6475C59.0111 38.6737 59.0106 38.6993 59.0097 38.7243C59.0106 38.7524 59.0111 38.7806 59.0111 38.8089C59.0111 39.9675 58.1928 40.12 57.1833 40.12C56.1739 40.12 55.3556 39.9675 55.3556 38.8089C55.3556 38.7806 55.356 38.7524 55.357 38.7243ZM49.6025 67.6533H44.3975C43.7182 69.3751 42.6655 70.9046 41.2664 72.2751L46.9357 75.6872L52.7472 72.2883C51.3413 70.9145 50.284 69.3807 49.6025 67.6533ZM51.5991 67.6533C55.7275 76.2777 70.5327 77.1089 74.3151 83.3341C73.8323 83.7028 73.3419 84.0619 72.8441 84.4112C72.8029 84.4402 72.7616 84.4691 72.7202 84.4979C71.7519 82.7456 69.3455 81.265 64.7644 79.2571C64.5422 79.1598 62.5821 78.3086 61.9955 78.0492C58.4461 76.4799 56.046 75.1991 54.0713 73.638L46.9223 77.8191L39.8751 73.5776C37.8894 75.164 35.466 76.461 31.874 78.0492C31.2873 78.3086 29.3272 79.1598 29.1051 79.2571C24.5811 81.24 22.1779 82.7086 21.1862 84.4325C21.1761 84.4254 21.166 84.4183 21.1559 84.4112C20.6581 84.0619 20.1677 83.7028 19.6848 83.3341C23.4673 77.1089 38.2725 76.2777 42.4009 67.6533H40.9944C40.4142 66.538 39.9206 65.4185 39.5136 64.2948C26.731 57.8573 23.5463 48.8415 23.5005 36.9733C23.5 36.9419 23.5001 36.9104 23.5002 36.8787C23.5001 36.8229 23.5 36.767 23.5 36.7111C23.6066 27.8443 29.0314 11.5378 47 11.5378C64.9686 11.5378 70.3934 27.8443 70.5 36.7111C70.5 36.767 70.4999 36.8229 70.4998 36.8787C70.4999 36.9104 70.5 36.9419 70.5 36.9733C70.4538 48.8415 67.269 57.8573 54.4864 64.2948C54.0794 65.4185 53.5858 66.538 53.0056 67.6533H51.5991ZM47 94.4C21.0426 94.4 0 73.2678 0 47.2C0 21.1322 21.0426 0 47 0C72.9574 0 94 21.1322 94 47.2C94 73.2678 72.9574 94.4 47 94.4ZM47 92.5644C71.9479 92.5644 92.1722 72.2541 92.1722 47.2C92.1722 22.1459 71.9479 1.83556 47 1.83556C22.0521 1.83556 1.82778 22.1459 1.82778 47.2C1.82778 72.2541 22.0521 92.5644 47 92.5644ZM47 51.2644L40.9944 52.9689C39.2296 56.5787 38.8815 59.332 39.95 61.2289C41.0185 63.1258 43.1945 64.0435 46.4778 63.9822H47.5222C50.8055 64.0435 52.9815 63.1258 54.05 61.2289C55.1185 59.332 54.7704 56.5787 53.0056 52.9689L47 51.2644ZM41.8576 56.4977C41.3792 56.3293 41.1358 55.8261 41.3139 55.3737C41.492 54.9214 42.0243 54.6912 42.5027 54.8596C44.057 55.4068 45.5768 55.6787 47.066 55.6787C48.5509 55.6787 50.021 55.4084 51.4816 54.8653C51.9566 54.6887 52.4932 54.9096 52.6801 55.3588C52.8669 55.808 52.6332 56.3154 52.1581 56.492C50.4847 57.1143 48.7855 57.4267 47.066 57.4267C45.3508 57.4267 43.6134 57.1159 41.8576 56.4977ZM37.0135 43.7733C40.0102 43.7733 42.4325 41.3637 42.4325 38.3999C42.4325 35.9116 40.5571 34.6133 37.0135 34.6133C33.4698 34.6133 31.5944 35.9116 31.5944 38.3999C31.5944 41.3637 34.0168 43.7733 37.0135 43.7733ZM57.3801 43.7733C60.3768 43.7733 62.7991 41.3637 62.7991 38.3999C62.7991 35.9116 60.9238 34.6133 57.3801 34.6133C53.8365 34.6133 51.9611 35.9116 51.9611 38.3999C51.9611 41.3637 54.3834 43.7733 57.3801 43.7733Z" fill="black"/>
<path fill-rule="evenodd" clip-rule="evenodd" d="M68.6593 36.1884C68.4899 31.4401 66.8557 26.0177 63.9511 21.8523C61.9448 18.9752 59.4217 16.7592 56.3571 15.3154C53.4291 15.5711 50.6661 17.3067 47 17.3067C43.3339 17.3067 40.5709 15.5711 37.6429 15.3154C34.5783 16.7592 32.0552 18.9752 30.0489 21.8523C27.1411 26.0222 25.5065 31.4519 25.3403 36.184H30.1774C31.1709 33.7987 33.8564 32.7778 37.0135 32.7778C39.8427 32.7778 42.2933 33.5977 43.4867 35.4848C45.8813 34.4825 48.4601 34.4982 50.8786 35.53C52.0614 33.6108 54.5284 32.7778 57.3801 32.7778C60.5767 32.7778 63.2899 33.8244 64.2528 36.2743L68.6593 36.1884ZM68.6586 38.0243L64.6208 38.103C64.6248 38.2005 64.6269 38.2995 64.6269 38.3999C64.6269 42.3813 61.3824 45.6089 57.3801 45.6089C53.3778 45.6089 50.1333 42.3813 50.1333 38.3999C50.1333 37.992 50.1674 37.6086 50.2328 37.2491C48.2321 36.3749 46.124 36.3576 44.1507 37.1956C44.2227 37.5705 44.2602 37.9717 44.2602 38.3999C44.2602 42.3813 41.0157 45.6089 37.0135 45.6089C33.0112 45.6089 29.7667 42.3813 29.7667 38.3999C29.7667 38.2707 29.7701 38.1439 29.7768 38.0196H25.3413C25.4838 44.7813 26.7673 49.7765 29.6182 53.9108C31.7006 56.9308 34.6834 59.5472 38.7596 61.8219C38.4195 60.4505 38.207 59.0728 38.1222 57.6889C37.9799 55.3655 38.5891 53.0055 39.95 50.6089L47 49.2978L54.05 50.6089C55.4109 53.0055 56.0201 55.3655 55.8778 57.6889C55.793 59.0728 55.5805 60.4505 55.2404 61.8219C59.3166 59.5472 62.2994 56.9308 64.3818 53.9108C67.2321 49.7775 68.5156 44.7836 68.6586 38.0243ZM34.9903 38.7243C34.9894 38.6993 34.9889 38.6737 34.9889 38.6475C34.9889 37.5781 35.8072 36.7111 36.8167 36.7111C37.8261 36.7111 38.6444 37.5781 38.6444 38.6475C38.6444 38.6737 38.644 38.6993 38.643 38.7243C38.644 38.7524 38.6444 38.7806 38.6444 38.8089C38.6444 39.9675 37.8261 40.12 36.8167 40.12C35.8072 40.12 34.9889 39.9675 34.9889 38.8089C34.9889 38.7806 34.9894 38.7524 34.9903 38.7243ZM55.357 38.7243C55.356 38.6993 55.3556 38.6737 55.3556 38.6475C55.3556 37.5781 56.1739 36.7111 57.1833 36.7111C58.1928 36.7111 59.0111 37.5781 59.0111 38.6475C59.0111 38.6737 59.0106 38.6993 59.0097 38.7243C59.0106 38.7524 59.0111 38.7806 59.0111 38.8089C59.0111 39.9675 58.1928 40.12 57.1833 40.12C56.1739 40.12 55.3556 39.9675 55.3556 38.8089C55.3556 38.7806 55.356 38.7524 55.357 38.7243ZM49.6025 67.6533H44.3975C43.7182 69.3751 42.6655 70.9046 41.2664 72.2751L46.9357 75.6872L52.7472 72.2883C51.3413 70.9145 50.284 69.3807 49.6025 67.6533ZM51.5991 67.6533C55.7275 76.2777 70.5327 77.1089 74.3151 83.3341C73.8323 83.7028 73.3419 84.0619 72.8441 84.4112C72.8029 84.4402 72.7616 84.4691 72.7202 84.4979C71.7519 82.7456 69.3455 81.265 64.7644 79.2571C64.5422 79.1598 62.5821 78.3086 61.9955 78.0492C58.4461 76.4799 56.046 75.1991 54.0713 73.638L46.9223 77.8191L39.8751 73.5776C37.8894 75.164 35.466 76.461 31.874 78.0492C31.2873 78.3086 29.3272 79.1598 29.1051 79.2571C24.5811 81.24 22.1779 82.7086 21.1862 84.4325C21.1761 84.4254 21.166 84.4183 21.1559 84.4112C20.6581 84.0619 20.1677 83.7028 19.6848 83.3341C23.4673 77.1089 38.2725 76.2777 42.4009 67.6533H40.9944C40.4142 66.538 39.9206 65.4185 39.5136 64.2948C26.731 57.8573 23.5463 48.8415 23.5005 36.9733C23.5 36.9419 23.5001 36.9104 23.5002 36.8787C23.5001 36.8229 23.5 36.767 23.5 36.7111C23.6066 27.8443 29.0314 11.5378 47 11.5378C64.9686 11.5378 70.3934 27.8443 70.5 36.7111C70.5 36.767 70.4999 36.8229 70.4998 36.8787C70.4999 36.9104 70.5 36.9419 70.5 36.9733C70.4538 48.8415 67.269 57.8573 54.4864 64.2948C54.0794 65.4185 53.5858 66.538 53.0056 67.6533H51.5991ZM47 94.4C21.0426 94.4 0 73.2678 0 47.2C0 21.1322 21.0426 0 47 0C72.9574 0 94 21.1322 94 47.2C94 73.2678 72.9574 94.4 47 94.4ZM47 92.5644C71.9479 92.5644 92.1722 72.2541 92.1722 47.2C92.1722 22.1459 71.9479 1.83556 47 1.83556C22.0521 1.83556 1.82778 22.1459 1.82778 47.2C1.82778 72.2541 22.0521 92.5644 47 92.5644ZM47 51.2644L40.9944 52.9689C39.2296 56.5787 38.8815 59.332 39.95 61.2289C41.0185 63.1258 43.1945 64.0435 46.4778 63.9822H47.5222C50.8055 64.0435 52.9815 63.1258 54.05 61.2289C55.1185 59.332 54.7704 56.5787 53.0056 52.9689L47 51.2644ZM41.8576 56.4977C41.3792 56.3293 41.1358 55.8261 41.3139 55.3737C41.492 54.9214 42.0243 54.6912 42.5027 54.8596C44.057 55.4068 45.5768 55.6787 47.066 55.6787C48.5509 55.6787 50.021 55.4084 51.4816 54.8653C51.9566 54.6887 52.4932 54.9096 52.6801 55.3588C52.8669 55.808 52.6332 56.3154 52.1581 56.492C50.4847 57.1143 48.7855 57.4267 47.066 57.4267C45.3508 57.4267 43.6134 57.1159 41.8576 56.4977ZM37.0135 43.7733C40.0102 43.7733 42.4325 41.3637 42.4325 38.3999C42.4325 35.9116 40.5571 34.6133 37.0135 34.6133C33.4698 34.6133 31.5944 35.9116 31.5944 38.3999C31.5944 41.3637 34.0168 43.7733 37.0135 43.7733ZM57.3801 43.7733C60.3768 43.7733 62.7991 41.3637 62.7991 38.3999C62.7991 35.9116 60.9238 34.6133 57.3801 34.6133C53.8365 34.6133 51.9611 35.9116 51.9611 38.3999C51.9611 41.3637 54.3834 43.7733 57.3801 43.7733Z" fill="white"/>
</svg>
